<mxfile host="app.diagrams.net" agent="Mozilla/5.0 (Windows NT 10.0; Win64; x64) AppleWebKit/537.36 (KHTML, like Gecko) Chrome/129.0.0.0 Safari/537.36" version="24.7.17">
  <diagram name="페이지-1" id="BvtBV7veBcAPr5XQ3UcV">
    <mxGraphModel dx="8393" dy="2029" grid="1" gridSize="10" guides="1" tooltips="1" connect="1" arrows="1" fold="1" page="1" pageScale="1" pageWidth="827" pageHeight="1169" background="none" math="0" shadow="0">
      <root>
        <mxCell id="0" />
        <mxCell id="1" parent="0" />
        <mxCell id="vz__xgmZE1eOc8z8mBKd-1" value="Server" style="swimlane;whiteSpace=wrap;html=1;" vertex="1" parent="1">
          <mxGeometry x="1310" y="2790" width="521.5" height="388" as="geometry" />
        </mxCell>
        <mxCell id="vz__xgmZE1eOc8z8mBKd-2" value="ContainerA" style="swimlane;whiteSpace=wrap;html=1;" vertex="1" parent="vz__xgmZE1eOc8z8mBKd-1">
          <mxGeometry x="20" y="39" width="95" height="110" as="geometry" />
        </mxCell>
        <mxCell id="vz__xgmZE1eOc8z8mBKd-3" value="User Service" style="rounded=0;whiteSpace=wrap;html=1;" vertex="1" parent="vz__xgmZE1eOc8z8mBKd-2">
          <mxGeometry x="2.25" y="40" width="86.5" height="38.5" as="geometry" />
        </mxCell>
        <mxCell id="vz__xgmZE1eOc8z8mBKd-4" value="User Service" style="rounded=0;whiteSpace=wrap;html=1;" vertex="1" parent="vz__xgmZE1eOc8z8mBKd-2">
          <mxGeometry x="6" y="45" width="86.5" height="38.5" as="geometry" />
        </mxCell>
        <mxCell id="vz__xgmZE1eOc8z8mBKd-5" value="ContainerB" style="swimlane;whiteSpace=wrap;html=1;" vertex="1" parent="vz__xgmZE1eOc8z8mBKd-1">
          <mxGeometry x="123" y="39" width="95" height="110" as="geometry" />
        </mxCell>
        <mxCell id="vz__xgmZE1eOc8z8mBKd-6" value="User Service" style="rounded=0;whiteSpace=wrap;html=1;" vertex="1" parent="vz__xgmZE1eOc8z8mBKd-5">
          <mxGeometry x="2.3799999999999955" y="38.5" width="86.5" height="38.5" as="geometry" />
        </mxCell>
        <mxCell id="vz__xgmZE1eOc8z8mBKd-7" value="User Service" style="rounded=0;whiteSpace=wrap;html=1;" vertex="1" parent="vz__xgmZE1eOc8z8mBKd-5">
          <mxGeometry x="6.1299999999999955" y="43.5" width="86.5" height="38.5" as="geometry" />
        </mxCell>
        <mxCell id="vz__xgmZE1eOc8z8mBKd-8" style="edgeStyle=orthogonalEdgeStyle;rounded=0;orthogonalLoop=1;jettySize=auto;html=1;" edge="1" parent="vz__xgmZE1eOc8z8mBKd-1" source="vz__xgmZE1eOc8z8mBKd-9" target="vz__xgmZE1eOc8z8mBKd-12">
          <mxGeometry relative="1" as="geometry" />
        </mxCell>
        <mxCell id="vz__xgmZE1eOc8z8mBKd-9" value="Container C" style="swimlane;whiteSpace=wrap;html=1;fillColor=#f8cecc;strokeColor=#b85450;" vertex="1" parent="vz__xgmZE1eOc8z8mBKd-1">
          <mxGeometry x="226" y="39" width="95" height="110" as="geometry" />
        </mxCell>
        <mxCell id="vz__xgmZE1eOc8z8mBKd-10" value="User Service" style="rounded=0;whiteSpace=wrap;html=1;" vertex="1" parent="vz__xgmZE1eOc8z8mBKd-9">
          <mxGeometry x="2.25" y="38.5" width="86.5" height="38.5" as="geometry" />
        </mxCell>
        <mxCell id="vz__xgmZE1eOc8z8mBKd-11" value="User Service" style="rounded=0;whiteSpace=wrap;html=1;" vertex="1" parent="vz__xgmZE1eOc8z8mBKd-9">
          <mxGeometry x="6" y="43.5" width="86.5" height="38.5" as="geometry" />
        </mxCell>
        <mxCell id="vz__xgmZE1eOc8z8mBKd-12" value="커널" style="whiteSpace=wrap;html=1;" vertex="1" parent="vz__xgmZE1eOc8z8mBKd-1">
          <mxGeometry x="29.5" y="304" width="386.5" height="60" as="geometry" />
        </mxCell>
        <mxCell id="vz__xgmZE1eOc8z8mBKd-13" value="eBPF" style="text;html=1;align=center;verticalAlign=middle;resizable=0;points=[];autosize=1;strokeColor=#d6b656;fillColor=#fff2cc;sketch=1;curveFitting=1;jiggle=2;" vertex="1" parent="vz__xgmZE1eOc8z8mBKd-1">
          <mxGeometry x="261.5" y="321" width="48" height="26" as="geometry" />
        </mxCell>
        <mxCell id="vz__xgmZE1eOc8z8mBKd-14" value="syscall 호출" style="text;html=1;align=center;verticalAlign=middle;resizable=0;points=[];autosize=1;strokeColor=none;fillColor=none;" vertex="1" parent="vz__xgmZE1eOc8z8mBKd-1">
          <mxGeometry x="222.5" y="229" width="81" height="26" as="geometry" />
        </mxCell>
        <mxCell id="vz__xgmZE1eOc8z8mBKd-15" value="실행 또는 보호조치" style="text;html=1;align=center;verticalAlign=middle;resizable=0;points=[];autosize=1;strokeColor=none;fillColor=none;" vertex="1" parent="vz__xgmZE1eOc8z8mBKd-1">
          <mxGeometry x="365.5" y="53" width="121" height="26" as="geometry" />
        </mxCell>
        <mxCell id="vz__xgmZE1eOc8z8mBKd-16" value="Syscall&lt;br&gt;변환" style="text;html=1;align=center;verticalAlign=middle;whiteSpace=wrap;rounded=0;" vertex="1" parent="vz__xgmZE1eOc8z8mBKd-1">
          <mxGeometry x="454.5" y="192" width="60" height="30" as="geometry" />
        </mxCell>
        <mxCell id="vz__xgmZE1eOc8z8mBKd-17" value="" style="rounded=1;whiteSpace=wrap;html=1;fillColor=none;dashed=1;" vertex="1" parent="1">
          <mxGeometry x="3247" y="2683.25" width="519" height="212" as="geometry" />
        </mxCell>
        <mxCell id="vz__xgmZE1eOc8z8mBKd-18" value="" style="shape=flexArrow;endArrow=classic;html=1;rounded=0;fillColor=default;" edge="1" parent="1">
          <mxGeometry width="50" height="50" relative="1" as="geometry">
            <mxPoint x="1839.5" y="3022" as="sourcePoint" />
            <mxPoint x="1752.5" y="3022" as="targetPoint" />
          </mxGeometry>
        </mxCell>
        <mxCell id="vz__xgmZE1eOc8z8mBKd-19" style="edgeStyle=orthogonalEdgeStyle;rounded=0;orthogonalLoop=1;jettySize=auto;html=1;exitX=0.5;exitY=0;exitDx=0;exitDy=0;entryX=1;entryY=0.5;entryDx=0;entryDy=0;" edge="1" parent="1" source="vz__xgmZE1eOc8z8mBKd-20" target="vz__xgmZE1eOc8z8mBKd-9">
          <mxGeometry relative="1" as="geometry" />
        </mxCell>
        <mxCell id="vz__xgmZE1eOc8z8mBKd-20" value="정책 비교" style="whiteSpace=wrap;html=1;" vertex="1" parent="1">
          <mxGeometry x="1643.5" y="2993" width="104" height="60" as="geometry" />
        </mxCell>
        <mxCell id="vz__xgmZE1eOc8z8mBKd-21" style="edgeStyle=orthogonalEdgeStyle;rounded=0;orthogonalLoop=1;jettySize=auto;html=1;entryX=0.5;entryY=1;entryDx=0;entryDy=0;" edge="1" parent="1" source="vz__xgmZE1eOc8z8mBKd-13" target="vz__xgmZE1eOc8z8mBKd-20">
          <mxGeometry relative="1" as="geometry" />
        </mxCell>
        <mxCell id="vz__xgmZE1eOc8z8mBKd-22" value="hooking" style="text;html=1;align=center;verticalAlign=middle;resizable=0;points=[];autosize=1;strokeColor=none;fillColor=none;" vertex="1" parent="1">
          <mxGeometry x="1630.5" y="3096" width="60" height="26" as="geometry" />
        </mxCell>
        <mxCell id="vz__xgmZE1eOc8z8mBKd-23" value="Container" style="swimlane;whiteSpace=wrap;html=1;fontSize=15;" vertex="1" parent="1">
          <mxGeometry x="2554" y="2622.25" width="277" height="239" as="geometry" />
        </mxCell>
        <mxCell id="vz__xgmZE1eOc8z8mBKd-24" value="&lt;blockquote style=&quot;margin: 0px 0px 0px 40px; border: none; padding: 0px; font-size: 15px;&quot;&gt;main() {&lt;div style=&quot;font-size: 15px;&quot;&gt;&lt;span style=&quot;white-space: pre; font-size: 15px;&quot;&gt;&#x9;&lt;/span&gt;syscall()&lt;/div&gt;&lt;div style=&quot;font-size: 15px;&quot;&gt;&lt;span style=&quot;white-space: pre; font-size: 15px;&quot;&gt;&#x9;&lt;/span&gt;syscall()&lt;/div&gt;&lt;div style=&quot;font-size: 15px;&quot;&gt;&lt;div style=&quot;font-size: 15px;&quot;&gt;}&lt;/div&gt;&lt;/div&gt;&lt;/blockquote&gt;" style="rounded=0;whiteSpace=wrap;html=1;align=left;fillColor=#f8cecc;strokeColor=#b85450;fontSize=15;" vertex="1" parent="vz__xgmZE1eOc8z8mBKd-23">
          <mxGeometry x="25" y="70" width="173" height="152" as="geometry" />
        </mxCell>
        <mxCell id="vz__xgmZE1eOc8z8mBKd-25" value="EoP Program" style="text;html=1;align=center;verticalAlign=middle;resizable=0;points=[];autosize=1;strokeColor=none;fillColor=none;fontSize=15;" vertex="1" parent="vz__xgmZE1eOc8z8mBKd-23">
          <mxGeometry x="16" y="43" width="108" height="30" as="geometry" />
        </mxCell>
        <mxCell id="vz__xgmZE1eOc8z8mBKd-26" value="" style="endArrow=none;dashed=1;html=1;dashPattern=1 3;strokeWidth=2;rounded=0;fontSize=15;" edge="1" parent="1">
          <mxGeometry width="50" height="50" relative="1" as="geometry">
            <mxPoint x="2503" y="2944.25" as="sourcePoint" />
            <mxPoint x="3358" y="2939.25" as="targetPoint" />
          </mxGeometry>
        </mxCell>
        <mxCell id="vz__xgmZE1eOc8z8mBKd-27" value="User Space" style="text;html=1;align=center;verticalAlign=middle;resizable=0;points=[];autosize=1;strokeColor=none;fillColor=none;fontSize=15;" vertex="1" parent="1">
          <mxGeometry x="2476" y="2899.25" width="96" height="30" as="geometry" />
        </mxCell>
        <mxCell id="vz__xgmZE1eOc8z8mBKd-28" value="Kernel Space" style="text;html=1;align=center;verticalAlign=middle;resizable=0;points=[];autosize=1;strokeColor=none;fillColor=none;fontSize=15;" vertex="1" parent="1">
          <mxGeometry x="2470" y="2951.25" width="108" height="30" as="geometry" />
        </mxCell>
        <mxCell id="vz__xgmZE1eOc8z8mBKd-29" value="inode" style="whiteSpace=wrap;html=1;fontSize=15;" vertex="1" parent="1">
          <mxGeometry x="2561" y="2978.25" width="120" height="60" as="geometry" />
        </mxCell>
        <mxCell id="vz__xgmZE1eOc8z8mBKd-30" value="files" style="whiteSpace=wrap;html=1;fontSize=15;" vertex="1" parent="1">
          <mxGeometry x="2561" y="3046.25" width="120" height="60" as="geometry" />
        </mxCell>
        <mxCell id="vz__xgmZE1eOc8z8mBKd-31" value="proc" style="whiteSpace=wrap;html=1;fontSize=15;" vertex="1" parent="1">
          <mxGeometry x="2561" y="3114.25" width="120" height="60" as="geometry" />
        </mxCell>
        <mxCell id="vz__xgmZE1eOc8z8mBKd-32" style="edgeStyle=orthogonalEdgeStyle;rounded=0;orthogonalLoop=1;jettySize=auto;html=1;exitX=0.5;exitY=0;exitDx=0;exitDy=0;fontSize=15;" edge="1" parent="1" source="vz__xgmZE1eOc8z8mBKd-34" target="vz__xgmZE1eOc8z8mBKd-37">
          <mxGeometry relative="1" as="geometry" />
        </mxCell>
        <mxCell id="vz__xgmZE1eOc8z8mBKd-33" style="edgeStyle=orthogonalEdgeStyle;rounded=0;orthogonalLoop=1;jettySize=auto;html=1;exitX=0;exitY=0.5;exitDx=0;exitDy=0;fontSize=15;" edge="1" parent="1" source="vz__xgmZE1eOc8z8mBKd-34" target="vz__xgmZE1eOc8z8mBKd-29">
          <mxGeometry relative="1" as="geometry" />
        </mxCell>
        <mxCell id="vz__xgmZE1eOc8z8mBKd-34" value="LSM inode hook" style="ellipse;whiteSpace=wrap;html=1;fontSize=15;" vertex="1" parent="1">
          <mxGeometry x="2755" y="2981.25" width="120" height="54" as="geometry" />
        </mxCell>
        <mxCell id="vz__xgmZE1eOc8z8mBKd-35" style="edgeStyle=orthogonalEdgeStyle;rounded=0;orthogonalLoop=1;jettySize=auto;html=1;exitX=0;exitY=0.5;exitDx=0;exitDy=0;fontSize=15;" edge="1" parent="1" source="vz__xgmZE1eOc8z8mBKd-36" target="vz__xgmZE1eOc8z8mBKd-30">
          <mxGeometry relative="1" as="geometry" />
        </mxCell>
        <mxCell id="vz__xgmZE1eOc8z8mBKd-36" value="LSM file hook" style="ellipse;whiteSpace=wrap;html=1;fontSize=15;" vertex="1" parent="1">
          <mxGeometry x="2755" y="3063.25" width="120" height="54" as="geometry" />
        </mxCell>
        <mxCell id="vz__xgmZE1eOc8z8mBKd-37" value="return -EPERM&lt;div&gt;&lt;font color=&quot;#ff0000&quot; style=&quot;font-size: 15px;&quot;&gt;&lt;b style=&quot;font-size: 15px;&quot;&gt;(Permission Deny)&lt;/b&gt;&lt;/font&gt;&lt;/div&gt;" style="text;html=1;align=center;verticalAlign=middle;resizable=0;points=[];autosize=1;strokeColor=none;fillColor=none;fontSize=15;" vertex="1" parent="1">
          <mxGeometry x="2787" y="2877.25" width="150" height="48" as="geometry" />
        </mxCell>
        <mxCell id="vz__xgmZE1eOc8z8mBKd-38" style="edgeStyle=orthogonalEdgeStyle;rounded=0;orthogonalLoop=1;jettySize=auto;html=1;exitX=1;exitY=0.5;exitDx=0;exitDy=0;fontSize=15;" edge="1" parent="1" source="vz__xgmZE1eOc8z8mBKd-39" target="vz__xgmZE1eOc8z8mBKd-47">
          <mxGeometry relative="1" as="geometry">
            <Array as="points">
              <mxPoint x="3090" y="3003" />
              <mxPoint x="3223" y="3003" />
            </Array>
          </mxGeometry>
        </mxCell>
        <mxCell id="vz__xgmZE1eOc8z8mBKd-39" value="bpf Program" style="whiteSpace=wrap;html=1;fontSize=15;fillColor=#fff2cc;strokeColor=#d6b656;sketch=1;curveFitting=1;jiggle=2;" vertex="1" parent="1">
          <mxGeometry x="2954" y="2973.25" width="120" height="60" as="geometry" />
        </mxCell>
        <mxCell id="vz__xgmZE1eOc8z8mBKd-40" value="bpf Program" style="whiteSpace=wrap;html=1;fontSize=15;fillColor=#fff2cc;strokeColor=#d6b656;sketch=1;curveFitting=1;jiggle=2;" vertex="1" parent="1">
          <mxGeometry x="2954" y="3060.25" width="120" height="60" as="geometry" />
        </mxCell>
        <mxCell id="vz__xgmZE1eOc8z8mBKd-41" value="" style="curved=1;endArrow=classic;html=1;rounded=0;entryX=0.226;entryY=0.036;entryDx=0;entryDy=0;entryPerimeter=0;exitX=0.576;exitY=-0.028;exitDx=0;exitDy=0;exitPerimeter=0;fontSize=15;" edge="1" parent="1" source="vz__xgmZE1eOc8z8mBKd-34" target="vz__xgmZE1eOc8z8mBKd-39">
          <mxGeometry width="50" height="50" relative="1" as="geometry">
            <mxPoint x="2706" y="2934.25" as="sourcePoint" />
            <mxPoint x="2756" y="2884.25" as="targetPoint" />
            <Array as="points">
              <mxPoint x="2887" y="2940.25" />
            </Array>
          </mxGeometry>
        </mxCell>
        <mxCell id="vz__xgmZE1eOc8z8mBKd-42" value="hook args" style="text;html=1;align=center;verticalAlign=middle;resizable=0;points=[];autosize=1;strokeColor=none;fillColor=none;fontSize=15;" vertex="1" parent="1">
          <mxGeometry x="2866" y="2961.25" width="84" height="30" as="geometry" />
        </mxCell>
        <mxCell id="vz__xgmZE1eOc8z8mBKd-43" value="" style="curved=1;endArrow=classic;html=1;rounded=0;exitX=0.392;exitY=0.951;exitDx=0;exitDy=0;exitPerimeter=0;entryX=0.5;entryY=1;entryDx=0;entryDy=0;fontSize=15;" edge="1" parent="1" source="vz__xgmZE1eOc8z8mBKd-39" target="vz__xgmZE1eOc8z8mBKd-34">
          <mxGeometry width="50" height="50" relative="1" as="geometry">
            <mxPoint x="2973" y="3060.25" as="sourcePoint" />
            <mxPoint x="2853" y="3128.25" as="targetPoint" />
            <Array as="points">
              <mxPoint x="2902" y="3054.25" />
            </Array>
          </mxGeometry>
        </mxCell>
        <mxCell id="vz__xgmZE1eOc8z8mBKd-44" value="hook return" style="text;html=1;align=center;verticalAlign=middle;resizable=0;points=[];autosize=1;strokeColor=none;fillColor=none;fontSize=15;" vertex="1" parent="1">
          <mxGeometry x="2854" y="3018.75" width="94" height="30" as="geometry" />
        </mxCell>
        <mxCell id="vz__xgmZE1eOc8z8mBKd-45" value="" style="curved=1;endArrow=classic;html=1;rounded=0;entryX=0.5;entryY=0;entryDx=0;entryDy=0;exitX=0.485;exitY=0.003;exitDx=0;exitDy=0;exitPerimeter=0;fontSize=15;" edge="1" parent="1" source="vz__xgmZE1eOc8z8mBKd-36" target="vz__xgmZE1eOc8z8mBKd-40">
          <mxGeometry width="50" height="50" relative="1" as="geometry">
            <mxPoint x="2823" y="3050.25" as="sourcePoint" />
            <mxPoint x="2992" y="3047.25" as="targetPoint" />
            <Array as="points">
              <mxPoint x="2900" y="3036.25" />
            </Array>
          </mxGeometry>
        </mxCell>
        <mxCell id="vz__xgmZE1eOc8z8mBKd-46" value="" style="curved=1;endArrow=classic;html=1;rounded=0;exitX=0.5;exitY=1;exitDx=0;exitDy=0;entryX=0.553;entryY=0.933;entryDx=0;entryDy=0;entryPerimeter=0;fontSize=15;" edge="1" parent="1" source="vz__xgmZE1eOc8z8mBKd-40" target="vz__xgmZE1eOc8z8mBKd-36">
          <mxGeometry width="50" height="50" relative="1" as="geometry">
            <mxPoint x="2999" y="3110.25" as="sourcePoint" />
            <mxPoint x="2822" y="3113.25" as="targetPoint" />
            <Array as="points">
              <mxPoint x="2915" y="3159.25" />
            </Array>
          </mxGeometry>
        </mxCell>
        <mxCell id="vz__xgmZE1eOc8z8mBKd-47" value="BPF Ring Buffer" style="strokeWidth=1;html=1;shape=mxgraph.flowchart.direct_data;whiteSpace=wrap;fontSize=15;" vertex="1" parent="1">
          <mxGeometry x="3221" y="2915.5" width="225" height="60" as="geometry" />
        </mxCell>
        <mxCell id="vz__xgmZE1eOc8z8mBKd-48" style="edgeStyle=orthogonalEdgeStyle;rounded=0;orthogonalLoop=1;jettySize=auto;html=1;exitX=1;exitY=0.5;exitDx=0;exitDy=0;entryX=0.5;entryY=1;entryDx=0;entryDy=0;entryPerimeter=0;fontSize=15;" edge="1" parent="1" source="vz__xgmZE1eOc8z8mBKd-40" target="vz__xgmZE1eOc8z8mBKd-47">
          <mxGeometry relative="1" as="geometry" />
        </mxCell>
        <mxCell id="vz__xgmZE1eOc8z8mBKd-49" style="edgeStyle=orthogonalEdgeStyle;rounded=0;orthogonalLoop=1;jettySize=auto;html=1;exitX=0.5;exitY=0;exitDx=0;exitDy=0;entryX=0.5;entryY=0;entryDx=0;entryDy=0;" edge="1" parent="1" source="vz__xgmZE1eOc8z8mBKd-50" target="vz__xgmZE1eOc8z8mBKd-60">
          <mxGeometry relative="1" as="geometry">
            <Array as="points">
              <mxPoint x="3063" y="2661.25" />
              <mxPoint x="3480" y="2661.25" />
            </Array>
          </mxGeometry>
        </mxCell>
        <mxCell id="vz__xgmZE1eOc8z8mBKd-50" value="" style="whiteSpace=wrap;html=1;fontSize=15;fillColor=#dae8fc;strokeColor=#6c8ebf;" vertex="1" parent="1">
          <mxGeometry x="2918" y="2770.25" width="289" height="81" as="geometry" />
        </mxCell>
        <mxCell id="vz__xgmZE1eOc8z8mBKd-51" value="Runtime Engine" style="text;html=1;align=center;verticalAlign=middle;resizable=0;points=[];autosize=1;strokeColor=none;fillColor=none;fontSize=15;" vertex="1" parent="1">
          <mxGeometry x="2910" y="2740.25" width="125" height="30" as="geometry" />
        </mxCell>
        <mxCell id="vz__xgmZE1eOc8z8mBKd-52" style="edgeStyle=orthogonalEdgeStyle;rounded=0;orthogonalLoop=1;jettySize=auto;html=1;exitX=0.5;exitY=1;exitDx=0;exitDy=0;fontSize=15;" edge="1" parent="1" source="vz__xgmZE1eOc8z8mBKd-53" target="vz__xgmZE1eOc8z8mBKd-39">
          <mxGeometry relative="1" as="geometry">
            <Array as="points">
              <mxPoint x="2990" y="2940" />
              <mxPoint x="2990" y="2940" />
            </Array>
          </mxGeometry>
        </mxCell>
        <mxCell id="vz__xgmZE1eOc8z8mBKd-53" value="eunomia, libbpf" style="whiteSpace=wrap;html=1;fontSize=15;" vertex="1" parent="1">
          <mxGeometry x="2930" y="2780.75" width="120" height="60" as="geometry" />
        </mxCell>
        <mxCell id="vz__xgmZE1eOc8z8mBKd-54" value="State dump" style="whiteSpace=wrap;html=1;fontSize=15;" vertex="1" parent="1">
          <mxGeometry x="3067" y="2780.75" width="120" height="60" as="geometry" />
        </mxCell>
        <mxCell id="vz__xgmZE1eOc8z8mBKd-55" style="edgeStyle=orthogonalEdgeStyle;rounded=0;orthogonalLoop=1;jettySize=auto;html=1;exitX=0.5;exitY=0;exitDx=0;exitDy=0;exitPerimeter=0;entryX=0.5;entryY=1;entryDx=0;entryDy=0;strokeWidth=1;fontSize=15;" edge="1" parent="1" source="vz__xgmZE1eOc8z8mBKd-47" target="vz__xgmZE1eOc8z8mBKd-54">
          <mxGeometry relative="1" as="geometry" />
        </mxCell>
        <mxCell id="vz__xgmZE1eOc8z8mBKd-56" value="bpf bytecode" style="text;html=1;align=center;verticalAlign=middle;resizable=0;points=[];autosize=1;strokeColor=none;fillColor=none;fontSize=15;" vertex="1" parent="1">
          <mxGeometry x="2890" y="2847.25" width="110" height="30" as="geometry" />
        </mxCell>
        <mxCell id="vz__xgmZE1eOc8z8mBKd-57" value="DB" style="whiteSpace=wrap;html=1;fontSize=15;" vertex="1" parent="1">
          <mxGeometry x="3257" y="2720.25" width="120" height="60" as="geometry" />
        </mxCell>
        <mxCell id="vz__xgmZE1eOc8z8mBKd-58" style="edgeStyle=orthogonalEdgeStyle;rounded=0;orthogonalLoop=1;jettySize=auto;html=1;exitX=1;exitY=0.5;exitDx=0;exitDy=0;entryX=0;entryY=0.5;entryDx=0;entryDy=0;fontSize=15;" edge="1" parent="1" source="vz__xgmZE1eOc8z8mBKd-60" target="vz__xgmZE1eOc8z8mBKd-63">
          <mxGeometry relative="1" as="geometry" />
        </mxCell>
        <mxCell id="vz__xgmZE1eOc8z8mBKd-59" style="edgeStyle=orthogonalEdgeStyle;rounded=0;orthogonalLoop=1;jettySize=auto;html=1;exitX=0.5;exitY=1;exitDx=0;exitDy=0;" edge="1" parent="1" source="vz__xgmZE1eOc8z8mBKd-60" target="vz__xgmZE1eOc8z8mBKd-50">
          <mxGeometry relative="1" as="geometry" />
        </mxCell>
        <mxCell id="vz__xgmZE1eOc8z8mBKd-60" value="BE" style="whiteSpace=wrap;html=1;fontSize=15;" vertex="1" parent="1">
          <mxGeometry x="3420" y="2720.25" width="120" height="60" as="geometry" />
        </mxCell>
        <mxCell id="vz__xgmZE1eOc8z8mBKd-61" style="edgeStyle=orthogonalEdgeStyle;rounded=0;orthogonalLoop=1;jettySize=auto;html=1;exitX=0.5;exitY=1;exitDx=0;exitDy=0;entryX=0.5;entryY=0;entryDx=0;entryDy=0;fontSize=15;" edge="1" parent="1" source="vz__xgmZE1eOc8z8mBKd-63" target="vz__xgmZE1eOc8z8mBKd-70">
          <mxGeometry relative="1" as="geometry" />
        </mxCell>
        <mxCell id="vz__xgmZE1eOc8z8mBKd-62" style="edgeStyle=orthogonalEdgeStyle;rounded=0;orthogonalLoop=1;jettySize=auto;html=1;exitX=0;exitY=0.25;exitDx=0;exitDy=0;entryX=1;entryY=0.25;entryDx=0;entryDy=0;" edge="1" parent="1" source="vz__xgmZE1eOc8z8mBKd-63" target="vz__xgmZE1eOc8z8mBKd-60">
          <mxGeometry relative="1" as="geometry" />
        </mxCell>
        <mxCell id="vz__xgmZE1eOc8z8mBKd-63" value="FE" style="whiteSpace=wrap;html=1;fontSize=15;" vertex="1" parent="1">
          <mxGeometry x="3621" y="2720.25" width="120" height="60" as="geometry" />
        </mxCell>
        <mxCell id="vz__xgmZE1eOc8z8mBKd-64" value="" style="endArrow=classic;startArrow=classic;html=1;rounded=0;entryX=0;entryY=0.5;entryDx=0;entryDy=0;exitX=1;exitY=0.5;exitDx=0;exitDy=0;fontSize=15;" edge="1" parent="1" source="vz__xgmZE1eOc8z8mBKd-57" target="vz__xgmZE1eOc8z8mBKd-60">
          <mxGeometry width="50" height="50" relative="1" as="geometry">
            <mxPoint x="3379.5" y="2741.25" as="sourcePoint" />
            <mxPoint x="3429.5" y="2691.25" as="targetPoint" />
          </mxGeometry>
        </mxCell>
        <mxCell id="vz__xgmZE1eOc8z8mBKd-65" value="Rule Set" style="text;html=1;align=center;verticalAlign=middle;resizable=0;points=[];autosize=1;strokeColor=none;fillColor=none;fontSize=15;" vertex="1" parent="1">
          <mxGeometry x="3538" y="2705.25" width="76" height="30" as="geometry" />
        </mxCell>
        <mxCell id="vz__xgmZE1eOc8z8mBKd-66" value="Event Info" style="text;html=1;align=center;verticalAlign=middle;resizable=0;points=[];autosize=1;strokeColor=none;fillColor=none;fontSize=15;" vertex="1" parent="1">
          <mxGeometry x="3540" y="2757.25" width="86" height="30" as="geometry" />
        </mxCell>
        <mxCell id="vz__xgmZE1eOc8z8mBKd-67" value="rule set" style="text;html=1;align=center;verticalAlign=middle;resizable=0;points=[];autosize=1;strokeColor=none;fillColor=none;fontSize=15;" vertex="1" parent="1">
          <mxGeometry x="3211" y="2816.25" width="67" height="30" as="geometry" />
        </mxCell>
        <mxCell id="vz__xgmZE1eOc8z8mBKd-68" value="trace info" style="text;html=1;align=center;verticalAlign=middle;resizable=0;points=[];autosize=1;strokeColor=none;fillColor=none;fontSize=15;" vertex="1" parent="1">
          <mxGeometry x="3067" y="2735.25" width="80" height="30" as="geometry" />
        </mxCell>
        <mxCell id="vz__xgmZE1eOc8z8mBKd-69" style="edgeStyle=orthogonalEdgeStyle;rounded=0;orthogonalLoop=1;jettySize=auto;html=1;exitX=0.5;exitY=0;exitDx=0;exitDy=0;entryX=0.5;entryY=1;entryDx=0;entryDy=0;fontSize=15;" edge="1" parent="1" source="vz__xgmZE1eOc8z8mBKd-70" target="vz__xgmZE1eOc8z8mBKd-63">
          <mxGeometry relative="1" as="geometry" />
        </mxCell>
        <mxCell id="vz__xgmZE1eOc8z8mBKd-70" value="User" style="whiteSpace=wrap;html=1;fontSize=15;" vertex="1" parent="1">
          <mxGeometry x="3621" y="2819.25" width="120" height="60" as="geometry" />
        </mxCell>
        <mxCell id="vz__xgmZE1eOc8z8mBKd-71" value="GUI" style="text;html=1;align=center;verticalAlign=middle;resizable=0;points=[];autosize=1;strokeColor=none;fillColor=none;fontSize=15;" vertex="1" parent="1">
          <mxGeometry x="3576" y="2819.25" width="45" height="30" as="geometry" />
        </mxCell>
        <mxCell id="vz__xgmZE1eOc8z8mBKd-72" style="edgeStyle=orthogonalEdgeStyle;rounded=0;orthogonalLoop=1;jettySize=auto;html=1;fontSize=15;" edge="1" parent="1" source="vz__xgmZE1eOc8z8mBKd-24" target="vz__xgmZE1eOc8z8mBKd-34">
          <mxGeometry relative="1" as="geometry">
            <Array as="points">
              <mxPoint x="2781" y="2768.25" />
            </Array>
          </mxGeometry>
        </mxCell>
        <mxCell id="vz__xgmZE1eOc8z8mBKd-73" value="&lt;div style=&quot;text-align: left; font-size: 15px;&quot;&gt;&lt;span style=&quot;font-size: 15px;&quot;&gt;Example)&lt;/span&gt;&lt;/div&gt;&lt;div style=&quot;text-align: left; font-size: 15px;&quot;&gt;&lt;span style=&quot;font-size: 15px;&quot;&gt;security_capset&lt;/span&gt;&lt;/div&gt;&lt;span style=&quot;font-size: 15px;&quot;&gt;&lt;div style=&quot;text-align: left; font-size: 15px;&quot;&gt;&lt;span style=&quot;font-size: 15px;&quot;&gt;create_user_ns&lt;/span&gt;&lt;/div&gt;&lt;/span&gt;&lt;span style=&quot;font-size: 15px;&quot;&gt;&lt;div style=&quot;text-align: left; font-size: 15px;&quot;&gt;&lt;span style=&quot;font-size: 15px;&quot;&gt;__sys_setuid&lt;/span&gt;&lt;/div&gt;&lt;/span&gt;&lt;span style=&quot;font-size: 15px;&quot;&gt;&lt;div style=&quot;text-align: left; font-size: 15px;&quot;&gt;&lt;span style=&quot;font-size: 15px;&quot;&gt;__sys_setgid&lt;/span&gt;&lt;/div&gt;&lt;/span&gt;&lt;span style=&quot;font-size: 15px;&quot;&gt;&lt;div style=&quot;text-align: left; font-size: 15px;&quot;&gt;&lt;span style=&quot;font-size: 15px;&quot;&gt;__sys_setreuid&lt;/span&gt;&lt;/div&gt;&lt;/span&gt;&lt;span style=&quot;font-size: 15px;&quot;&gt;&lt;div style=&quot;text-align: left; font-size: 15px;&quot;&gt;&lt;span style=&quot;font-size: 15px;&quot;&gt;__sys_setregid&lt;/span&gt;&lt;/div&gt;&lt;/span&gt;&lt;span style=&quot;font-size: 15px;&quot;&gt;&lt;div style=&quot;text-align: left; font-size: 15px;&quot;&gt;&lt;span style=&quot;font-size: 15px;&quot;&gt;__sys_setresuid&lt;/span&gt;&lt;/div&gt;&lt;/span&gt;" style="text;html=1;align=center;verticalAlign=middle;resizable=0;points=[];autosize=1;strokeColor=default;fillColor=none;fontSize=15;labelBackgroundColor=default;" vertex="1" parent="1">
          <mxGeometry x="2787" y="2663.25" width="126" height="156" as="geometry" />
        </mxCell>
        <mxCell id="vz__xgmZE1eOc8z8mBKd-74" value="&lt;h1 style=&quot;text-align: center; margin-top: 0px;&quot;&gt;&lt;span style=&quot;font-weight: normal;&quot;&gt;&amp;nbsp;Container C Policy.yaml&lt;/span&gt;&lt;/h1&gt;&lt;div style=&quot;background-color: rgb(255, 255, 255); font-family: Consolas, &amp;quot;Courier New&amp;quot;, monospace; font-size: 14px; line-height: 19px; white-space: pre;&quot;&gt;&lt;div style=&quot;color: rgb(59, 59, 59);&quot;&gt;&lt;div style=&quot;line-height: 19px;&quot;&gt;&lt;div&gt;&amp;nbsp;&lt;span style=&quot;color: #800000;&quot;&gt;call&lt;/span&gt;: &lt;span style=&quot;color: #a31515;&quot;&gt;&quot;__sys_setuid&quot;&lt;/span&gt;&lt;/div&gt;&lt;div&gt;&amp;nbsp; &amp;nbsp; &lt;span style=&quot;color: #800000;&quot;&gt;message&lt;/span&gt;: &lt;span style=&quot;color: #a31515;&quot;&gt;&quot;Privileged operation setuid to root&quot;&lt;/span&gt;&lt;/div&gt;&lt;div&gt;&amp;nbsp; &amp;nbsp; &lt;span style=&quot;color: #800000;&quot;&gt;syscall&lt;/span&gt;: &lt;span style=&quot;color: #0000ff;&quot;&gt;false&lt;/span&gt;&lt;/div&gt;&lt;div&gt;&amp;nbsp; &amp;nbsp; &lt;span style=&quot;color: #800000;&quot;&gt;args&lt;/span&gt;:&lt;/div&gt;&lt;div&gt;&amp;nbsp; &amp;nbsp; - &lt;span style=&quot;color: #800000;&quot;&gt;index&lt;/span&gt;: &lt;span style=&quot;color: #098658;&quot;&gt;0&lt;/span&gt;&lt;/div&gt;&lt;div&gt;&amp;nbsp; &amp;nbsp; &amp;nbsp; &lt;span style=&quot;color: #800000;&quot;&gt;type&lt;/span&gt;: &lt;span style=&quot;color: #a31515;&quot;&gt;&quot;int&quot;&lt;/span&gt;&lt;/div&gt;&lt;div&gt;&amp;nbsp; &amp;nbsp; &lt;span style=&quot;color: #800000;&quot;&gt;selectors&lt;/span&gt;:&lt;/div&gt;&lt;div&gt;&amp;nbsp; &amp;nbsp; - &lt;span style=&quot;color: #800000;&quot;&gt;matchArgs&lt;/span&gt;:&lt;/div&gt;&lt;div&gt;&amp;nbsp; &amp;nbsp; &amp;nbsp; - &lt;span style=&quot;color: #800000;&quot;&gt;index&lt;/span&gt;: &lt;span style=&quot;color: #098658;&quot;&gt;0&lt;/span&gt;&lt;/div&gt;&lt;div&gt;&amp;nbsp; &amp;nbsp; &amp;nbsp; &amp;nbsp; &lt;span style=&quot;color: #800000;&quot;&gt;operator&lt;/span&gt;: &lt;span style=&quot;color: #a31515;&quot;&gt;&quot;Equal&quot;&lt;/span&gt;&lt;/div&gt;&lt;div&gt;&amp;nbsp; &amp;nbsp; &amp;nbsp; &amp;nbsp; &lt;span style=&quot;color: #800000;&quot;&gt;values&lt;/span&gt;:&lt;/div&gt;&lt;div&gt;&amp;nbsp; &amp;nbsp; &amp;nbsp; &amp;nbsp; - &lt;span style=&quot;color: #a31515;&quot;&gt;&quot;0&quot;&lt;/span&gt;&lt;/div&gt;&lt;div&gt;&amp;nbsp; &amp;nbsp; &amp;nbsp; &lt;span style=&quot;color: #800000;&quot;&gt;matchActions&lt;/span&gt;:&lt;/div&gt;&lt;div&gt;&amp;nbsp; &amp;nbsp; &amp;nbsp; - &lt;span style=&quot;color: #800000;&quot;&gt;action&lt;/span&gt;: &lt;span style=&quot;color: #0000ff;&quot;&gt;Post&lt;/span&gt;&lt;/div&gt;&lt;div&gt;&amp;nbsp; &amp;nbsp; &amp;nbsp; &amp;nbsp; &lt;span style=&quot;color: #800000;&quot;&gt;rateLimit&lt;/span&gt;: &lt;span style=&quot;color: #a31515;&quot;&gt;&quot;1m&quot;&lt;/span&gt; &amp;nbsp;&lt;/div&gt;&lt;div&gt;&amp;nbsp; - &lt;span style=&quot;color: #800000;&quot;&gt;call&lt;/span&gt;: &lt;span style=&quot;color: #a31515;&quot;&gt;&quot;__sys_setgid&quot;&lt;/span&gt;&lt;/div&gt;&lt;div&gt;&amp;nbsp; &amp;nbsp; &lt;span style=&quot;color: #800000;&quot;&gt;message&lt;/span&gt;: &lt;span style=&quot;color: #a31515;&quot;&gt;&quot;Privileged operation setgid to root&quot;&lt;/span&gt;&lt;/div&gt;&lt;div&gt;&amp;nbsp; &amp;nbsp; &lt;span style=&quot;color: #800000;&quot;&gt;syscall&lt;/span&gt;: &lt;span style=&quot;color: #0000ff;&quot;&gt;false&lt;/span&gt;&lt;/div&gt;&lt;div&gt;&amp;nbsp; &amp;nbsp; &lt;span style=&quot;color: #800000;&quot;&gt;args&lt;/span&gt;:&lt;/div&gt;&lt;div&gt;&amp;nbsp; &amp;nbsp; - &lt;span style=&quot;color: #800000;&quot;&gt;index&lt;/span&gt;: &lt;span style=&quot;color: #098658;&quot;&gt;0&lt;/span&gt;&lt;/div&gt;&lt;div&gt;&amp;nbsp; &amp;nbsp; &amp;nbsp; &lt;span style=&quot;color: #800000;&quot;&gt;type&lt;/span&gt;: &lt;span style=&quot;color: #a31515;&quot;&gt;&quot;int&quot;&lt;/span&gt;&lt;/div&gt;&lt;div&gt;&amp;nbsp; &amp;nbsp; &lt;span style=&quot;color: #800000;&quot;&gt;selectors&lt;/span&gt;:&lt;/div&gt;&lt;div&gt;&amp;nbsp; &amp;nbsp; - &lt;span style=&quot;color: #800000;&quot;&gt;matchArgs&lt;/span&gt;:&lt;/div&gt;&lt;div&gt;&amp;nbsp; &amp;nbsp; &amp;nbsp; - &lt;span style=&quot;color: #800000;&quot;&gt;index&lt;/span&gt;: &lt;span style=&quot;color: #098658;&quot;&gt;0&lt;/span&gt;&lt;/div&gt;&lt;div&gt;&amp;nbsp; &amp;nbsp; &amp;nbsp; &amp;nbsp; &lt;span style=&quot;color: #800000;&quot;&gt;operator&lt;/span&gt;: &lt;span style=&quot;color: #a31515;&quot;&gt;&quot;Equal&quot;&lt;/span&gt;&lt;/div&gt;&lt;div&gt;&amp;nbsp; &amp;nbsp; &amp;nbsp; &amp;nbsp; &lt;span style=&quot;color: #800000;&quot;&gt;values&lt;/span&gt;:&lt;/div&gt;&lt;div&gt;&amp;nbsp; &amp;nbsp; &amp;nbsp; &amp;nbsp; - &lt;span style=&quot;color: #a31515;&quot;&gt;&quot;0&quot;&lt;/span&gt;&lt;/div&gt;&lt;div&gt;&amp;nbsp; &amp;nbsp; &amp;nbsp; &lt;span style=&quot;color: #800000;&quot;&gt;matchActions&lt;/span&gt;:&lt;/div&gt;&lt;div&gt;&amp;nbsp; &amp;nbsp; &amp;nbsp; - &lt;span style=&quot;color: #800000;&quot;&gt;action&lt;/span&gt;: &lt;span style=&quot;color: #0000ff;&quot;&gt;Post&lt;/span&gt;&lt;/div&gt;&lt;div&gt;&amp;nbsp; &amp;nbsp; &amp;nbsp; &amp;nbsp; &lt;span style=&quot;color: #800000;&quot;&gt;rateLimit&lt;/span&gt;: &lt;span style=&quot;color: #a31515;&quot;&gt;&quot;1m&quot;&lt;/span&gt; &amp;nbsp;&lt;/div&gt;&lt;/div&gt;&lt;/div&gt;&lt;/div&gt;" style="text;html=1;whiteSpace=wrap;overflow=hidden;rounded=0;strokeColor=default;" vertex="1" parent="1">
          <mxGeometry x="776" y="2534.5" width="436" height="742.5" as="geometry" />
        </mxCell>
        <mxCell id="vz__xgmZE1eOc8z8mBKd-75" value="&lt;b&gt;.&lt;br&gt;.&lt;br&gt;.&lt;br&gt;&lt;/b&gt;" style="text;html=1;align=center;verticalAlign=middle;resizable=0;points=[];autosize=1;strokeColor=none;fillColor=none;" vertex="1" parent="1">
          <mxGeometry x="2795" y="3134.25" width="21" height="55" as="geometry" />
        </mxCell>
        <mxCell id="vz__xgmZE1eOc8z8mBKd-76" value="&lt;b&gt;.&lt;br&gt;.&lt;br&gt;.&lt;br&gt;&lt;/b&gt;" style="text;html=1;align=center;verticalAlign=middle;resizable=0;points=[];autosize=1;strokeColor=none;fillColor=none;" vertex="1" parent="1">
          <mxGeometry x="3010" y="3134.25" width="21" height="55" as="geometry" />
        </mxCell>
        <mxCell id="vz__xgmZE1eOc8z8mBKd-77" value="" style="endArrow=none;dashed=1;html=1;dashPattern=1 3;strokeWidth=2;rounded=0;" edge="1" parent="1">
          <mxGeometry width="50" height="50" relative="1" as="geometry">
            <mxPoint x="880.125" y="3242.5" as="sourcePoint" />
            <mxPoint x="879" y="3164" as="targetPoint" />
          </mxGeometry>
        </mxCell>
        <mxCell id="vz__xgmZE1eOc8z8mBKd-78" value="" style="html=1;shadow=0;dashed=0;align=center;verticalAlign=middle;shape=mxgraph.arrows2.arrow;dy=0.6;dx=40;notch=0;" vertex="1" parent="1">
          <mxGeometry x="642" y="2852" width="100" height="70" as="geometry" />
        </mxCell>
        <mxCell id="vz__xgmZE1eOc8z8mBKd-79" value="포트 22 차단" style="rounded=0;whiteSpace=wrap;html=1;fontSize=16;" vertex="1" parent="1">
          <mxGeometry x="85" y="2737" width="120" height="60" as="geometry" />
        </mxCell>
        <mxCell id="vz__xgmZE1eOc8z8mBKd-80" value="IP 192.168.243.5 &lt;br style=&quot;font-size: 16px;&quot;&gt;허용" style="rounded=0;whiteSpace=wrap;html=1;fontSize=16;" vertex="1" parent="1">
          <mxGeometry x="85" y="2814" width="120" height="60" as="geometry" />
        </mxCell>
        <mxCell id="vz__xgmZE1eOc8z8mBKd-81" value="메모리 사용량 80%&lt;br style=&quot;font-size: 16px;&quot;&gt;제한" style="rounded=0;whiteSpace=wrap;html=1;fontSize=16;" vertex="1" parent="1">
          <mxGeometry x="85" y="2891" width="120" height="60" as="geometry" />
        </mxCell>
        <mxCell id="vz__xgmZE1eOc8z8mBKd-82" value="파일 생성 차단" style="rounded=0;whiteSpace=wrap;html=1;fontSize=16;" vertex="1" parent="1">
          <mxGeometry x="85" y="2968" width="120" height="60" as="geometry" />
        </mxCell>
        <mxCell id="vz__xgmZE1eOc8z8mBKd-83" value="Etc." style="rounded=0;whiteSpace=wrap;html=1;fontSize=16;" vertex="1" parent="1">
          <mxGeometry x="85" y="3045" width="120" height="60" as="geometry" />
        </mxCell>
        <mxCell id="vz__xgmZE1eOc8z8mBKd-84" value="글로 적힌 정책" style="rounded=0;whiteSpace=wrap;html=1;fontSize=16;" vertex="1" parent="1">
          <mxGeometry x="344" y="2761" width="186" height="312" as="geometry" />
        </mxCell>
        <mxCell id="vz__xgmZE1eOc8z8mBKd-85" value="" style="curved=1;endArrow=classic;html=1;rounded=0;exitX=1;exitY=0.5;exitDx=0;exitDy=0;entryX=0.008;entryY=0.483;entryDx=0;entryDy=0;entryPerimeter=0;fontSize=16;" edge="1" parent="1" source="vz__xgmZE1eOc8z8mBKd-79" target="vz__xgmZE1eOc8z8mBKd-84">
          <mxGeometry width="50" height="50" relative="1" as="geometry">
            <mxPoint x="497" y="2942" as="sourcePoint" />
            <mxPoint x="547" y="2892" as="targetPoint" />
            <Array as="points">
              <mxPoint x="266" y="2736" />
            </Array>
          </mxGeometry>
        </mxCell>
        <mxCell id="vz__xgmZE1eOc8z8mBKd-86" value="" style="curved=1;endArrow=classic;html=1;rounded=0;exitX=1;exitY=0.5;exitDx=0;exitDy=0;entryX=0.008;entryY=0.48;entryDx=0;entryDy=0;entryPerimeter=0;fontSize=16;" edge="1" parent="1" source="vz__xgmZE1eOc8z8mBKd-80" target="vz__xgmZE1eOc8z8mBKd-84">
          <mxGeometry width="50" height="50" relative="1" as="geometry">
            <mxPoint x="110" y="2846" as="sourcePoint" />
            <mxPoint x="435" y="3018" as="targetPoint" />
            <Array as="points">
              <mxPoint x="290" y="2849" />
            </Array>
          </mxGeometry>
        </mxCell>
        <mxCell id="vz__xgmZE1eOc8z8mBKd-87" value="" style="curved=1;endArrow=classic;html=1;rounded=0;exitX=1;exitY=0.5;exitDx=0;exitDy=0;entryX=0.008;entryY=0.473;entryDx=0;entryDy=0;entryPerimeter=0;fontSize=16;" edge="1" parent="1" source="vz__xgmZE1eOc8z8mBKd-81" target="vz__xgmZE1eOc8z8mBKd-84">
          <mxGeometry width="50" height="50" relative="1" as="geometry">
            <mxPoint x="96" y="2932" as="sourcePoint" />
            <mxPoint x="421" y="3023" as="targetPoint" />
            <Array as="points">
              <mxPoint x="205" y="2952" />
            </Array>
          </mxGeometry>
        </mxCell>
        <mxCell id="vz__xgmZE1eOc8z8mBKd-88" value="" style="curved=1;endArrow=classic;html=1;rounded=0;exitX=1;exitY=0.5;exitDx=0;exitDy=0;entryX=0;entryY=0.5;entryDx=0;entryDy=0;fontSize=16;" edge="1" parent="1" source="vz__xgmZE1eOc8z8mBKd-82" target="vz__xgmZE1eOc8z8mBKd-84">
          <mxGeometry width="50" height="50" relative="1" as="geometry">
            <mxPoint x="144" y="2974" as="sourcePoint" />
            <mxPoint x="405" y="2904" as="targetPoint" />
            <Array as="points">
              <mxPoint x="260" y="3006" />
            </Array>
          </mxGeometry>
        </mxCell>
        <mxCell id="vz__xgmZE1eOc8z8mBKd-89" value="" style="curved=1;endArrow=classic;html=1;rounded=0;exitX=1;exitY=0.5;exitDx=0;exitDy=0;entryX=0;entryY=0.554;entryDx=0;entryDy=0;entryPerimeter=0;fontSize=16;" edge="1" parent="1" source="vz__xgmZE1eOc8z8mBKd-83" target="vz__xgmZE1eOc8z8mBKd-84">
          <mxGeometry width="50" height="50" relative="1" as="geometry">
            <mxPoint x="95" y="3025" as="sourcePoint" />
            <mxPoint x="418" y="2970" as="targetPoint" />
            <Array as="points">
              <mxPoint x="269" y="3066" />
            </Array>
          </mxGeometry>
        </mxCell>
        <mxCell id="vz__xgmZE1eOc8z8mBKd-90" value="JSON" style="text;html=1;align=center;verticalAlign=middle;resizable=0;points=[];autosize=1;strokeColor=none;fillColor=none;fontSize=20;" vertex="1" parent="1">
          <mxGeometry x="656.5" y="2927.5" width="71" height="36" as="geometry" />
        </mxCell>
        <mxCell id="vz__xgmZE1eOc8z8mBKd-91" value="" style="rounded=0;whiteSpace=wrap;html=1;strokeColor=default;dashed=1;fillColor=none;fontSize=13;" vertex="1" parent="1">
          <mxGeometry x="51" y="2692" width="538" height="456" as="geometry" />
        </mxCell>
        <mxCell id="vz__xgmZE1eOc8z8mBKd-92" value="Client" style="text;html=1;align=center;verticalAlign=middle;resizable=0;points=[];autosize=1;strokeColor=none;fillColor=none;fontSize=13;" vertex="1" parent="1">
          <mxGeometry x="50" y="2666" width="51" height="28" as="geometry" />
        </mxCell>
        <mxCell id="vz__xgmZE1eOc8z8mBKd-93" value="Server" style="text;html=1;align=center;verticalAlign=middle;resizable=0;points=[];autosize=1;strokeColor=none;fillColor=none;" vertex="1" parent="1">
          <mxGeometry x="776" y="2510" width="53" height="26" as="geometry" />
        </mxCell>
        <mxCell id="vz__xgmZE1eOc8z8mBKd-94" value="&lt;h1 style=&quot;text-align: center; margin-top: 0px;&quot;&gt;&lt;span style=&quot;font-weight: normal;&quot;&gt;&amp;nbsp;Container C Policy.yaml&lt;/span&gt;&lt;/h1&gt;&lt;div style=&quot;background-color: rgb(255, 255, 255); font-family: Consolas, &amp;quot;Courier New&amp;quot;, monospace; font-size: 14px; line-height: 19px; white-space: pre;&quot;&gt;&lt;div style=&quot;color: rgb(59, 59, 59);&quot;&gt;&lt;div style=&quot;line-height: 19px;&quot;&gt;&lt;div&gt;&amp;nbsp;&lt;span style=&quot;color: #800000;&quot;&gt;call&lt;/span&gt;: &lt;span style=&quot;color: #a31515;&quot;&gt;&quot;__sys_setuid&quot;&lt;/span&gt;&lt;/div&gt;&lt;div&gt;&amp;nbsp; &amp;nbsp; &lt;span style=&quot;color: #800000;&quot;&gt;message&lt;/span&gt;: &lt;span style=&quot;color: #a31515;&quot;&gt;&quot;Privileged operation setuid to root&quot;&lt;/span&gt;&lt;/div&gt;&lt;div&gt;&amp;nbsp; &amp;nbsp; &lt;span style=&quot;color: #800000;&quot;&gt;syscall&lt;/span&gt;: &lt;span style=&quot;color: #0000ff;&quot;&gt;false&lt;/span&gt;&lt;/div&gt;&lt;div&gt;&amp;nbsp; &amp;nbsp; &lt;span style=&quot;color: #800000;&quot;&gt;args&lt;/span&gt;:&lt;/div&gt;&lt;div&gt;&amp;nbsp; &amp;nbsp; - &lt;span style=&quot;color: #800000;&quot;&gt;index&lt;/span&gt;: &lt;span style=&quot;color: #098658;&quot;&gt;0&lt;/span&gt;&lt;/div&gt;&lt;div&gt;&amp;nbsp; &amp;nbsp; &amp;nbsp; &lt;span style=&quot;color: #800000;&quot;&gt;type&lt;/span&gt;: &lt;span style=&quot;color: #a31515;&quot;&gt;&quot;int&quot;&lt;/span&gt;&lt;/div&gt;&lt;div&gt;&amp;nbsp; &amp;nbsp; &lt;span style=&quot;color: #800000;&quot;&gt;selectors&lt;/span&gt;:&lt;/div&gt;&lt;div&gt;&amp;nbsp; &amp;nbsp; - &lt;span style=&quot;color: #800000;&quot;&gt;matchArgs&lt;/span&gt;:&lt;/div&gt;&lt;div&gt;&amp;nbsp; &amp;nbsp; &amp;nbsp; - &lt;span style=&quot;color: #800000;&quot;&gt;index&lt;/span&gt;: &lt;span style=&quot;color: #098658;&quot;&gt;0&lt;/span&gt;&lt;/div&gt;&lt;div&gt;&amp;nbsp; &amp;nbsp; &amp;nbsp; &amp;nbsp; &lt;span style=&quot;color: #800000;&quot;&gt;operator&lt;/span&gt;: &lt;span style=&quot;color: #a31515;&quot;&gt;&quot;Equal&quot;&lt;/span&gt;&lt;/div&gt;&lt;div&gt;&amp;nbsp; &amp;nbsp; &amp;nbsp; &amp;nbsp; &lt;span style=&quot;color: #800000;&quot;&gt;values&lt;/span&gt;:&lt;/div&gt;&lt;div&gt;&amp;nbsp; &amp;nbsp; &amp;nbsp; &amp;nbsp; - &lt;span style=&quot;color: #a31515;&quot;&gt;&quot;0&quot;&lt;/span&gt;&lt;/div&gt;&lt;div&gt;&amp;nbsp; &amp;nbsp; &amp;nbsp; &lt;span style=&quot;color: #800000;&quot;&gt;matchActions&lt;/span&gt;:&lt;/div&gt;&lt;div&gt;&amp;nbsp; &amp;nbsp; &amp;nbsp; - &lt;span style=&quot;color: #800000;&quot;&gt;action&lt;/span&gt;: &lt;span style=&quot;color: #0000ff;&quot;&gt;Post&lt;/span&gt;&lt;/div&gt;&lt;div&gt;&amp;nbsp; &amp;nbsp; &amp;nbsp; &amp;nbsp; &lt;span style=&quot;color: #800000;&quot;&gt;rateLimit&lt;/span&gt;: &lt;span style=&quot;color: #a31515;&quot;&gt;&quot;1m&quot;&lt;/span&gt; &amp;nbsp;&lt;/div&gt;&lt;div&gt;&amp;nbsp; - &lt;span style=&quot;color: #800000;&quot;&gt;call&lt;/span&gt;: &lt;span style=&quot;color: #a31515;&quot;&gt;&quot;__sys_setgid&quot;&lt;/span&gt;&lt;/div&gt;&lt;div&gt;&amp;nbsp; &amp;nbsp; &lt;span style=&quot;color: #800000;&quot;&gt;message&lt;/span&gt;: &lt;span style=&quot;color: #a31515;&quot;&gt;&quot;Privileged operation setgid to root&quot;&lt;/span&gt;&lt;/div&gt;&lt;div&gt;&amp;nbsp; &amp;nbsp; &lt;span style=&quot;color: #800000;&quot;&gt;syscall&lt;/span&gt;: &lt;span style=&quot;color: #0000ff;&quot;&gt;false&lt;/span&gt;&lt;/div&gt;&lt;div&gt;&amp;nbsp; &amp;nbsp; &lt;span style=&quot;color: #800000;&quot;&gt;args&lt;/span&gt;:&lt;/div&gt;&lt;div&gt;&amp;nbsp; &amp;nbsp; - &lt;span style=&quot;color: #800000;&quot;&gt;index&lt;/span&gt;: &lt;span style=&quot;color: #098658;&quot;&gt;0&lt;/span&gt;&lt;/div&gt;&lt;div&gt;&amp;nbsp; &amp;nbsp; &amp;nbsp; &lt;span style=&quot;color: #800000;&quot;&gt;type&lt;/span&gt;: &lt;span style=&quot;color: #a31515;&quot;&gt;&quot;int&quot;&lt;/span&gt;&lt;/div&gt;&lt;div&gt;&amp;nbsp; &amp;nbsp; &lt;span style=&quot;color: #800000;&quot;&gt;selectors&lt;/span&gt;:&lt;/div&gt;&lt;div&gt;&amp;nbsp; &amp;nbsp; - &lt;span style=&quot;color: #800000;&quot;&gt;matchArgs&lt;/span&gt;:&lt;/div&gt;&lt;div&gt;&amp;nbsp; &amp;nbsp; &amp;nbsp; - &lt;span style=&quot;color: #800000;&quot;&gt;index&lt;/span&gt;: &lt;span style=&quot;color: #098658;&quot;&gt;0&lt;/span&gt;&lt;/div&gt;&lt;div&gt;&amp;nbsp; &amp;nbsp; &amp;nbsp; &amp;nbsp; &lt;span style=&quot;color: #800000;&quot;&gt;operator&lt;/span&gt;: &lt;span style=&quot;color: #a31515;&quot;&gt;&quot;Equal&quot;&lt;/span&gt;&lt;/div&gt;&lt;div&gt;&amp;nbsp; &amp;nbsp; &amp;nbsp; &amp;nbsp; &lt;span style=&quot;color: #800000;&quot;&gt;values&lt;/span&gt;:&lt;/div&gt;&lt;div&gt;&amp;nbsp; &amp;nbsp; &amp;nbsp; &amp;nbsp; - &lt;span style=&quot;color: #a31515;&quot;&gt;&quot;0&quot;&lt;/span&gt;&lt;/div&gt;&lt;div&gt;&amp;nbsp; &amp;nbsp; &amp;nbsp; &lt;span style=&quot;color: #800000;&quot;&gt;matchActions&lt;/span&gt;:&lt;/div&gt;&lt;div&gt;&amp;nbsp; &amp;nbsp; &amp;nbsp; - &lt;span style=&quot;color: #800000;&quot;&gt;action&lt;/span&gt;: &lt;span style=&quot;color: #0000ff;&quot;&gt;Post&lt;/span&gt;&lt;/div&gt;&lt;div&gt;&amp;nbsp; &amp;nbsp; &amp;nbsp; &amp;nbsp; &lt;span style=&quot;color: #800000;&quot;&gt;rateLimit&lt;/span&gt;: &lt;span style=&quot;color: #a31515;&quot;&gt;&quot;1m&quot;&lt;/span&gt; &amp;nbsp;&lt;/div&gt;&lt;/div&gt;&lt;/div&gt;&lt;/div&gt;" style="text;html=1;whiteSpace=wrap;overflow=hidden;rounded=0;strokeColor=default;" vertex="1" parent="1">
          <mxGeometry x="1866.25" y="2530" width="436" height="742.5" as="geometry" />
        </mxCell>
        <mxCell id="vz__xgmZE1eOc8z8mBKd-95" value="" style="endArrow=none;dashed=1;html=1;dashPattern=1 3;strokeWidth=2;rounded=0;" edge="1" parent="1">
          <mxGeometry width="50" height="50" relative="1" as="geometry">
            <mxPoint x="1970.375" y="3238" as="sourcePoint" />
            <mxPoint x="1969.25" y="3159.5" as="targetPoint" />
          </mxGeometry>
        </mxCell>
        <mxCell id="vz__xgmZE1eOc8z8mBKd-96" value="yaml&lt;br style=&quot;font-size: 16px;&quot;&gt;event log" style="text;html=1;align=center;verticalAlign=middle;resizable=0;points=[];autosize=1;strokeColor=none;fillColor=none;fontSize=16;" vertex="1" parent="1">
          <mxGeometry x="3675" y="2778.25" width="90" height="50" as="geometry" />
        </mxCell>
        <mxCell id="vz__xgmZE1eOc8z8mBKd-97" value="yaml&lt;br style=&quot;font-size: 16px;&quot;&gt;log" style="text;html=1;align=center;verticalAlign=middle;resizable=0;points=[];autosize=1;strokeColor=none;fillColor=none;fontSize=16;" vertex="1" parent="1">
          <mxGeometry x="3365" y="2700.25" width="60" height="50" as="geometry" />
        </mxCell>
        <mxCell id="vz__xgmZE1eOc8z8mBKd-98" value="&amp;nbsp;yaml params" style="text;html=1;align=center;verticalAlign=middle;resizable=0;points=[];autosize=1;strokeColor=none;fillColor=none;" vertex="1" parent="1">
          <mxGeometry x="3074" y="2883.25" width="100" height="30" as="geometry" />
        </mxCell>
        <mxCell id="vz__xgmZE1eOc8z8mBKd-99" value="dump events" style="text;html=1;align=center;verticalAlign=middle;resizable=0;points=[];autosize=1;strokeColor=none;fillColor=none;fontSize=15;" vertex="1" parent="1">
          <mxGeometry x="3340" y="3016.25" width="104" height="30" as="geometry" />
        </mxCell>
        <mxCell id="vz__xgmZE1eOc8z8mBKd-100" value="bpf MAP" style="whiteSpace=wrap;html=1;" vertex="1" parent="1">
          <mxGeometry x="3074" y="2913.25" width="106" height="46.75" as="geometry" />
        </mxCell>
        <mxCell id="vz__xgmZE1eOc8z8mBKd-101" style="edgeStyle=orthogonalEdgeStyle;rounded=0;orthogonalLoop=1;jettySize=auto;html=1;exitX=0.75;exitY=1;exitDx=0;exitDy=0;entryX=0.102;entryY=0.067;entryDx=0;entryDy=0;entryPerimeter=0;" edge="1" parent="1" source="vz__xgmZE1eOc8z8mBKd-53" target="vz__xgmZE1eOc8z8mBKd-100">
          <mxGeometry relative="1" as="geometry" />
        </mxCell>
        <mxCell id="vz__xgmZE1eOc8z8mBKd-102" style="edgeStyle=orthogonalEdgeStyle;rounded=0;orthogonalLoop=1;jettySize=auto;html=1;exitX=0.5;exitY=1;exitDx=0;exitDy=0;entryX=1.006;entryY=0.372;entryDx=0;entryDy=0;entryPerimeter=0;" edge="1" parent="1" source="vz__xgmZE1eOc8z8mBKd-100" target="vz__xgmZE1eOc8z8mBKd-39">
          <mxGeometry relative="1" as="geometry" />
        </mxCell>
        <mxCell id="vz__xgmZE1eOc8z8mBKd-103" style="edgeStyle=orthogonalEdgeStyle;rounded=0;orthogonalLoop=1;jettySize=auto;html=1;exitX=0.5;exitY=1;exitDx=0;exitDy=0;entryX=1.002;entryY=0.402;entryDx=0;entryDy=0;entryPerimeter=0;" edge="1" parent="1" source="vz__xgmZE1eOc8z8mBKd-100" target="vz__xgmZE1eOc8z8mBKd-40">
          <mxGeometry relative="1" as="geometry" />
        </mxCell>
        <mxCell id="vz__xgmZE1eOc8z8mBKd-104" value="Server" style="swimlane;whiteSpace=wrap;html=1;" vertex="1" parent="1">
          <mxGeometry x="24" y="3709.5" width="526" height="388" as="geometry" />
        </mxCell>
        <mxCell id="vz__xgmZE1eOc8z8mBKd-105" value="ContainerA" style="swimlane;whiteSpace=wrap;html=1;" vertex="1" parent="vz__xgmZE1eOc8z8mBKd-104">
          <mxGeometry x="20" y="57" width="95" height="110" as="geometry" />
        </mxCell>
        <mxCell id="vz__xgmZE1eOc8z8mBKd-106" value="User Service" style="rounded=0;whiteSpace=wrap;html=1;" vertex="1" parent="vz__xgmZE1eOc8z8mBKd-105">
          <mxGeometry x="2.25" y="40" width="86.5" height="38.5" as="geometry" />
        </mxCell>
        <mxCell id="vz__xgmZE1eOc8z8mBKd-107" value="User Service" style="rounded=0;whiteSpace=wrap;html=1;" vertex="1" parent="vz__xgmZE1eOc8z8mBKd-105">
          <mxGeometry x="6" y="45" width="86.5" height="38.5" as="geometry" />
        </mxCell>
        <mxCell id="vz__xgmZE1eOc8z8mBKd-108" style="edgeStyle=orthogonalEdgeStyle;rounded=0;orthogonalLoop=1;jettySize=auto;html=1;entryX=0.191;entryY=-0.001;entryDx=0;entryDy=0;entryPerimeter=0;" edge="1" parent="vz__xgmZE1eOc8z8mBKd-104" target="vz__xgmZE1eOc8z8mBKd-131">
          <mxGeometry relative="1" as="geometry">
            <mxPoint x="124.98206278026919" y="121.52466367712987" as="targetPoint" />
            <mxPoint x="125" y="120" as="sourcePoint" />
            <Array as="points">
              <mxPoint x="120" y="120" />
              <mxPoint x="120" y="227" />
              <mxPoint x="119" y="227" />
            </Array>
          </mxGeometry>
        </mxCell>
        <mxCell id="vz__xgmZE1eOc8z8mBKd-109" value="ContainerB" style="swimlane;whiteSpace=wrap;html=1;" vertex="1" parent="vz__xgmZE1eOc8z8mBKd-104">
          <mxGeometry x="125" y="57" width="95" height="110" as="geometry" />
        </mxCell>
        <mxCell id="vz__xgmZE1eOc8z8mBKd-110" value="User Service" style="rounded=0;whiteSpace=wrap;html=1;" vertex="1" parent="vz__xgmZE1eOc8z8mBKd-109">
          <mxGeometry x="2.3799999999999955" y="38.5" width="86.5" height="38.5" as="geometry" />
        </mxCell>
        <mxCell id="vz__xgmZE1eOc8z8mBKd-111" value="User Service" style="rounded=0;whiteSpace=wrap;html=1;" vertex="1" parent="vz__xgmZE1eOc8z8mBKd-109">
          <mxGeometry x="6.1299999999999955" y="43.5" width="86.5" height="38.5" as="geometry" />
        </mxCell>
        <mxCell id="vz__xgmZE1eOc8z8mBKd-112" value="ContainerC" style="swimlane;whiteSpace=wrap;html=1;" vertex="1" parent="vz__xgmZE1eOc8z8mBKd-104">
          <mxGeometry x="20" y="178" width="95" height="110" as="geometry" />
        </mxCell>
        <mxCell id="vz__xgmZE1eOc8z8mBKd-113" value="User Service" style="rounded=0;whiteSpace=wrap;html=1;" vertex="1" parent="vz__xgmZE1eOc8z8mBKd-112">
          <mxGeometry x="2.25" y="40" width="86.5" height="38.5" as="geometry" />
        </mxCell>
        <mxCell id="vz__xgmZE1eOc8z8mBKd-114" value="User Service" style="rounded=0;whiteSpace=wrap;html=1;" vertex="1" parent="vz__xgmZE1eOc8z8mBKd-112">
          <mxGeometry x="6" y="45" width="86.5" height="38.5" as="geometry" />
        </mxCell>
        <mxCell id="vz__xgmZE1eOc8z8mBKd-115" value="ContainerD" style="swimlane;whiteSpace=wrap;html=1;" vertex="1" parent="vz__xgmZE1eOc8z8mBKd-104">
          <mxGeometry x="125" y="178" width="95" height="110" as="geometry" />
        </mxCell>
        <mxCell id="vz__xgmZE1eOc8z8mBKd-116" value="User Service" style="rounded=0;whiteSpace=wrap;html=1;" vertex="1" parent="vz__xgmZE1eOc8z8mBKd-115">
          <mxGeometry x="2.3799999999999955" y="38.5" width="86.5" height="38.5" as="geometry" />
        </mxCell>
        <mxCell id="vz__xgmZE1eOc8z8mBKd-117" value="User Service" style="rounded=0;whiteSpace=wrap;html=1;" vertex="1" parent="vz__xgmZE1eOc8z8mBKd-115">
          <mxGeometry x="6.1299999999999955" y="43.5" width="86.5" height="38.5" as="geometry" />
        </mxCell>
        <mxCell id="vz__xgmZE1eOc8z8mBKd-118" style="edgeStyle=orthogonalEdgeStyle;rounded=0;orthogonalLoop=1;jettySize=auto;html=1;exitX=1;exitY=0.25;exitDx=0;exitDy=0;entryX=1;entryY=0.5;entryDx=0;entryDy=0;" edge="1" parent="vz__xgmZE1eOc8z8mBKd-104" source="vz__xgmZE1eOc8z8mBKd-119" target="vz__xgmZE1eOc8z8mBKd-128">
          <mxGeometry relative="1" as="geometry" />
        </mxCell>
        <mxCell id="vz__xgmZE1eOc8z8mBKd-119" value="eBPF Container" style="swimlane;whiteSpace=wrap;html=1;fillColor=#f8cecc;strokeColor=#b85450;" vertex="1" parent="vz__xgmZE1eOc8z8mBKd-104">
          <mxGeometry x="386" y="231" width="95" height="70" as="geometry" />
        </mxCell>
        <mxCell id="vz__xgmZE1eOc8z8mBKd-120" value="eBPF&lt;br&gt;User Program" style="rounded=0;whiteSpace=wrap;html=1;" vertex="1" parent="vz__xgmZE1eOc8z8mBKd-119">
          <mxGeometry x="4" y="27.5" width="86.5" height="38.5" as="geometry" />
        </mxCell>
        <mxCell id="vz__xgmZE1eOc8z8mBKd-121" value="&lt;h2&gt;.....&lt;/h2&gt;" style="text;html=1;align=center;verticalAlign=middle;resizable=0;points=[];autosize=1;strokeColor=none;fillColor=none;" vertex="1" parent="vz__xgmZE1eOc8z8mBKd-104">
          <mxGeometry x="220" y="203" width="50" height="60" as="geometry" />
        </mxCell>
        <mxCell id="vz__xgmZE1eOc8z8mBKd-122" value="&lt;h2&gt;.....&lt;/h2&gt;" style="text;html=1;align=center;verticalAlign=middle;resizable=0;points=[];autosize=1;strokeColor=none;fillColor=none;" vertex="1" parent="vz__xgmZE1eOc8z8mBKd-104">
          <mxGeometry x="220" y="81" width="50" height="60" as="geometry" />
        </mxCell>
        <mxCell id="vz__xgmZE1eOc8z8mBKd-123" style="edgeStyle=orthogonalEdgeStyle;rounded=0;orthogonalLoop=1;jettySize=auto;html=1;exitX=0.5;exitY=1;exitDx=0;exitDy=0;entryX=0.081;entryY=0;entryDx=0;entryDy=0;entryPerimeter=0;" edge="1" parent="vz__xgmZE1eOc8z8mBKd-104" source="vz__xgmZE1eOc8z8mBKd-112" target="vz__xgmZE1eOc8z8mBKd-131">
          <mxGeometry relative="1" as="geometry" />
        </mxCell>
        <mxCell id="vz__xgmZE1eOc8z8mBKd-124" style="edgeStyle=orthogonalEdgeStyle;rounded=0;orthogonalLoop=1;jettySize=auto;html=1;entryX=0.191;entryY=-0.012;entryDx=0;entryDy=0;entryPerimeter=0;exitX=1;exitY=0.75;exitDx=0;exitDy=0;" edge="1" parent="vz__xgmZE1eOc8z8mBKd-104" target="vz__xgmZE1eOc8z8mBKd-131">
          <mxGeometry relative="1" as="geometry">
            <mxPoint x="115" y="127.5" as="sourcePoint" />
            <mxPoint x="119.36549999999988" y="304.22000000000025" as="targetPoint" />
            <Array as="points">
              <mxPoint x="120" y="128" />
              <mxPoint x="120" y="233" />
              <mxPoint x="119" y="233" />
            </Array>
          </mxGeometry>
        </mxCell>
        <mxCell id="vz__xgmZE1eOc8z8mBKd-125" value="Syscall" style="text;html=1;align=center;verticalAlign=middle;resizable=0;points=[];autosize=1;strokeColor=none;fillColor=none;" vertex="1" parent="vz__xgmZE1eOc8z8mBKd-104">
          <mxGeometry x="172" y="293" width="60" height="30" as="geometry" />
        </mxCell>
        <mxCell id="vz__xgmZE1eOc8z8mBKd-126" value="Log" style="text;html=1;align=center;verticalAlign=middle;resizable=0;points=[];autosize=1;strokeColor=none;fillColor=none;" vertex="1" parent="vz__xgmZE1eOc8z8mBKd-104">
          <mxGeometry x="430" y="294.5" width="40" height="30" as="geometry" />
        </mxCell>
        <mxCell id="vz__xgmZE1eOc8z8mBKd-127" value="Apply the policy" style="text;whiteSpace=wrap;" vertex="1" parent="vz__xgmZE1eOc8z8mBKd-104">
          <mxGeometry x="484" y="71" width="120" height="40" as="geometry" />
        </mxCell>
        <mxCell id="vz__xgmZE1eOc8z8mBKd-128" value="Data Bridge" style="swimlane;whiteSpace=wrap;html=1;fillColor=#f8cecc;strokeColor=#b85450;startSize=23;" vertex="1" parent="vz__xgmZE1eOc8z8mBKd-104">
          <mxGeometry x="386" y="150.5" width="95" height="70" as="geometry" />
        </mxCell>
        <mxCell id="vz__xgmZE1eOc8z8mBKd-129" value="communication&lt;br&gt;Program" style="rounded=0;whiteSpace=wrap;html=1;" vertex="1" parent="vz__xgmZE1eOc8z8mBKd-128">
          <mxGeometry x="4" y="27" width="86.5" height="38.5" as="geometry" />
        </mxCell>
        <mxCell id="vz__xgmZE1eOc8z8mBKd-130" value="" style="group" vertex="1" connectable="0" parent="vz__xgmZE1eOc8z8mBKd-104">
          <mxGeometry x="29.5" y="323" width="470.5" height="60" as="geometry" />
        </mxCell>
        <mxCell id="vz__xgmZE1eOc8z8mBKd-131" value="Kernel" style="whiteSpace=wrap;html=1;" vertex="1" parent="vz__xgmZE1eOc8z8mBKd-130">
          <mxGeometry width="470.5" height="60" as="geometry" />
        </mxCell>
        <mxCell id="vz__xgmZE1eOc8z8mBKd-132" value="eBPF" style="text;html=1;align=center;verticalAlign=middle;resizable=0;points=[];autosize=1;strokeColor=#d6b656;fillColor=#fff2cc;sketch=1;curveFitting=1;jiggle=2;" vertex="1" parent="vz__xgmZE1eOc8z8mBKd-130">
          <mxGeometry x="278.5" y="17" width="48" height="26" as="geometry" />
        </mxCell>
        <mxCell id="vz__xgmZE1eOc8z8mBKd-133" style="edgeStyle=orthogonalEdgeStyle;rounded=0;orthogonalLoop=1;jettySize=auto;html=1;entryX=0.5;entryY=1;entryDx=0;entryDy=0;" edge="1" parent="vz__xgmZE1eOc8z8mBKd-104" source="vz__xgmZE1eOc8z8mBKd-132" target="vz__xgmZE1eOc8z8mBKd-120">
          <mxGeometry relative="1" as="geometry" />
        </mxCell>
        <mxCell id="vz__xgmZE1eOc8z8mBKd-134" style="edgeStyle=orthogonalEdgeStyle;rounded=0;orthogonalLoop=1;jettySize=auto;html=1;exitX=0.5;exitY=1;exitDx=0;exitDy=0;entryX=0.303;entryY=0.015;entryDx=0;entryDy=0;entryPerimeter=0;" edge="1" parent="vz__xgmZE1eOc8z8mBKd-104" source="vz__xgmZE1eOc8z8mBKd-115" target="vz__xgmZE1eOc8z8mBKd-131">
          <mxGeometry relative="1" as="geometry" />
        </mxCell>
        <mxCell id="vz__xgmZE1eOc8z8mBKd-135" value="&lt;h1 style=&quot;margin-top: 0px;&quot;&gt;1안&lt;/h1&gt;&lt;p&gt;현재 프로젝트 기간 동안 구현을 목표로 하고 있는 구조&lt;/p&gt;" style="text;html=1;whiteSpace=wrap;overflow=hidden;rounded=0;" vertex="1" parent="1">
          <mxGeometry x="20" y="3560" width="180" height="120" as="geometry" />
        </mxCell>
        <mxCell id="vz__xgmZE1eOc8z8mBKd-136" value="Server" style="swimlane;whiteSpace=wrap;html=1;" vertex="1" parent="1">
          <mxGeometry x="830" y="3811" width="521.5" height="388" as="geometry" />
        </mxCell>
        <mxCell id="vz__xgmZE1eOc8z8mBKd-137" value="ContainerA" style="swimlane;whiteSpace=wrap;html=1;" vertex="1" parent="vz__xgmZE1eOc8z8mBKd-136">
          <mxGeometry x="20" y="39" width="95" height="110" as="geometry" />
        </mxCell>
        <mxCell id="vz__xgmZE1eOc8z8mBKd-138" value="User Service" style="rounded=0;whiteSpace=wrap;html=1;" vertex="1" parent="vz__xgmZE1eOc8z8mBKd-137">
          <mxGeometry x="2.25" y="40" width="86.5" height="38.5" as="geometry" />
        </mxCell>
        <mxCell id="vz__xgmZE1eOc8z8mBKd-139" value="User Service" style="rounded=0;whiteSpace=wrap;html=1;" vertex="1" parent="vz__xgmZE1eOc8z8mBKd-137">
          <mxGeometry x="6" y="45" width="86.5" height="38.5" as="geometry" />
        </mxCell>
        <mxCell id="vz__xgmZE1eOc8z8mBKd-140" style="edgeStyle=orthogonalEdgeStyle;rounded=0;orthogonalLoop=1;jettySize=auto;html=1;entryX=0.191;entryY=-0.001;entryDx=0;entryDy=0;entryPerimeter=0;" edge="1" parent="vz__xgmZE1eOc8z8mBKd-136" target="vz__xgmZE1eOc8z8mBKd-147">
          <mxGeometry relative="1" as="geometry">
            <mxPoint x="124.98206278026919" y="121.52466367712987" as="targetPoint" />
            <mxPoint x="125" y="120" as="sourcePoint" />
            <Array as="points">
              <mxPoint x="120" y="120" />
              <mxPoint x="120" y="227" />
              <mxPoint x="119" y="227" />
            </Array>
          </mxGeometry>
        </mxCell>
        <mxCell id="vz__xgmZE1eOc8z8mBKd-141" value="ContainerB" style="swimlane;whiteSpace=wrap;html=1;" vertex="1" parent="vz__xgmZE1eOc8z8mBKd-136">
          <mxGeometry x="125" y="39" width="95" height="110" as="geometry" />
        </mxCell>
        <mxCell id="vz__xgmZE1eOc8z8mBKd-142" value="User Service" style="rounded=0;whiteSpace=wrap;html=1;" vertex="1" parent="vz__xgmZE1eOc8z8mBKd-141">
          <mxGeometry x="2.3799999999999955" y="38.5" width="86.5" height="38.5" as="geometry" />
        </mxCell>
        <mxCell id="vz__xgmZE1eOc8z8mBKd-143" value="User Service" style="rounded=0;whiteSpace=wrap;html=1;" vertex="1" parent="vz__xgmZE1eOc8z8mBKd-141">
          <mxGeometry x="6.1299999999999955" y="43.5" width="86.5" height="38.5" as="geometry" />
        </mxCell>
        <mxCell id="vz__xgmZE1eOc8z8mBKd-144" value="Sol CotainerA" style="swimlane;whiteSpace=wrap;html=1;fillColor=#f8cecc;strokeColor=#b85450;" vertex="1" parent="vz__xgmZE1eOc8z8mBKd-136">
          <mxGeometry x="390" y="39" width="95" height="110" as="geometry" />
        </mxCell>
        <mxCell id="vz__xgmZE1eOc8z8mBKd-145" value="User Service" style="rounded=0;whiteSpace=wrap;html=1;" vertex="1" parent="vz__xgmZE1eOc8z8mBKd-144">
          <mxGeometry x="2.25" y="38.5" width="86.5" height="38.5" as="geometry" />
        </mxCell>
        <mxCell id="vz__xgmZE1eOc8z8mBKd-146" value="communication&lt;br&gt;Program" style="rounded=0;whiteSpace=wrap;html=1;" vertex="1" parent="vz__xgmZE1eOc8z8mBKd-144">
          <mxGeometry x="6" y="43.5" width="86.5" height="38.5" as="geometry" />
        </mxCell>
        <mxCell id="vz__xgmZE1eOc8z8mBKd-147" value="커널" style="whiteSpace=wrap;html=1;" vertex="1" parent="vz__xgmZE1eOc8z8mBKd-136">
          <mxGeometry x="29.5" y="304" width="470.5" height="60" as="geometry" />
        </mxCell>
        <mxCell id="vz__xgmZE1eOc8z8mBKd-148" style="edgeStyle=orthogonalEdgeStyle;rounded=0;orthogonalLoop=1;jettySize=auto;html=1;entryX=0.5;entryY=1;entryDx=0;entryDy=0;" edge="1" parent="vz__xgmZE1eOc8z8mBKd-136" source="vz__xgmZE1eOc8z8mBKd-149" target="vz__xgmZE1eOc8z8mBKd-158">
          <mxGeometry relative="1" as="geometry" />
        </mxCell>
        <mxCell id="vz__xgmZE1eOc8z8mBKd-149" value="eBPF" style="text;html=1;align=center;verticalAlign=middle;resizable=0;points=[];autosize=1;strokeColor=#d6b656;fillColor=#fff2cc;sketch=1;curveFitting=1;jiggle=2;" vertex="1" parent="vz__xgmZE1eOc8z8mBKd-136">
          <mxGeometry x="308" y="321" width="48" height="26" as="geometry" />
        </mxCell>
        <mxCell id="vz__xgmZE1eOc8z8mBKd-150" value="ContainerC" style="swimlane;whiteSpace=wrap;html=1;" vertex="1" parent="vz__xgmZE1eOc8z8mBKd-136">
          <mxGeometry x="20" y="160" width="95" height="110" as="geometry" />
        </mxCell>
        <mxCell id="vz__xgmZE1eOc8z8mBKd-151" value="User Service" style="rounded=0;whiteSpace=wrap;html=1;" vertex="1" parent="vz__xgmZE1eOc8z8mBKd-150">
          <mxGeometry x="2.25" y="40" width="86.5" height="38.5" as="geometry" />
        </mxCell>
        <mxCell id="vz__xgmZE1eOc8z8mBKd-152" value="User Service" style="rounded=0;whiteSpace=wrap;html=1;" vertex="1" parent="vz__xgmZE1eOc8z8mBKd-150">
          <mxGeometry x="6" y="45" width="86.5" height="38.5" as="geometry" />
        </mxCell>
        <mxCell id="vz__xgmZE1eOc8z8mBKd-153" value="ContainerD" style="swimlane;whiteSpace=wrap;html=1;" vertex="1" parent="vz__xgmZE1eOc8z8mBKd-136">
          <mxGeometry x="125" y="160" width="95" height="110" as="geometry" />
        </mxCell>
        <mxCell id="vz__xgmZE1eOc8z8mBKd-154" value="User Service" style="rounded=0;whiteSpace=wrap;html=1;" vertex="1" parent="vz__xgmZE1eOc8z8mBKd-153">
          <mxGeometry x="2.3799999999999955" y="38.5" width="86.5" height="38.5" as="geometry" />
        </mxCell>
        <mxCell id="vz__xgmZE1eOc8z8mBKd-155" value="User Service" style="rounded=0;whiteSpace=wrap;html=1;" vertex="1" parent="vz__xgmZE1eOc8z8mBKd-153">
          <mxGeometry x="6.1299999999999955" y="43.5" width="86.5" height="38.5" as="geometry" />
        </mxCell>
        <mxCell id="vz__xgmZE1eOc8z8mBKd-156" value="Sol CotainerB" style="swimlane;whiteSpace=wrap;html=1;fillColor=#f8cecc;strokeColor=#b85450;" vertex="1" parent="vz__xgmZE1eOc8z8mBKd-136">
          <mxGeometry x="390" y="160" width="95" height="110" as="geometry" />
        </mxCell>
        <mxCell id="vz__xgmZE1eOc8z8mBKd-157" value="User Service" style="rounded=0;whiteSpace=wrap;html=1;" vertex="1" parent="vz__xgmZE1eOc8z8mBKd-156">
          <mxGeometry x="2.25" y="38.5" width="86.5" height="38.5" as="geometry" />
        </mxCell>
        <mxCell id="vz__xgmZE1eOc8z8mBKd-158" value="eBPF&lt;br&gt;User Program" style="rounded=0;whiteSpace=wrap;html=1;" vertex="1" parent="vz__xgmZE1eOc8z8mBKd-156">
          <mxGeometry x="6" y="43.5" width="86.5" height="38.5" as="geometry" />
        </mxCell>
        <mxCell id="vz__xgmZE1eOc8z8mBKd-159" value="&lt;h2&gt;.....&lt;/h2&gt;" style="text;html=1;align=center;verticalAlign=middle;resizable=0;points=[];autosize=1;strokeColor=none;fillColor=none;" vertex="1" parent="vz__xgmZE1eOc8z8mBKd-136">
          <mxGeometry x="220" y="185" width="50" height="60" as="geometry" />
        </mxCell>
        <mxCell id="vz__xgmZE1eOc8z8mBKd-160" value="&lt;h2&gt;.....&lt;/h2&gt;" style="text;html=1;align=center;verticalAlign=middle;resizable=0;points=[];autosize=1;strokeColor=none;fillColor=none;" vertex="1" parent="vz__xgmZE1eOc8z8mBKd-136">
          <mxGeometry x="220" y="64" width="50" height="60" as="geometry" />
        </mxCell>
        <mxCell id="vz__xgmZE1eOc8z8mBKd-161" style="edgeStyle=orthogonalEdgeStyle;rounded=0;orthogonalLoop=1;jettySize=auto;html=1;entryX=0;entryY=0.5;entryDx=0;entryDy=0;exitX=0.007;exitY=0.635;exitDx=0;exitDy=0;exitPerimeter=0;" edge="1" parent="vz__xgmZE1eOc8z8mBKd-136" source="vz__xgmZE1eOc8z8mBKd-157" target="vz__xgmZE1eOc8z8mBKd-146">
          <mxGeometry relative="1" as="geometry" />
        </mxCell>
        <mxCell id="vz__xgmZE1eOc8z8mBKd-162" value="Share log and policy&amp;nbsp;&lt;div style=&quot;font-size: 10px;&quot;&gt;with `volume`&lt;/div&gt;&lt;div style=&quot;font-size: 10px;&quot;&gt;&lt;br style=&quot;font-size: 10px;&quot;&gt;&lt;/div&gt;&lt;div style=&quot;font-size: 10px;&quot;&gt;or&lt;/div&gt;&lt;div style=&quot;font-size: 10px;&quot;&gt;&lt;br style=&quot;font-size: 10px;&quot;&gt;&lt;/div&gt;&lt;div style=&quot;font-size: 10px;&quot;&gt;Socket&amp;nbsp;&lt;/div&gt;&lt;div style=&quot;font-size: 10px;&quot;&gt;or&amp;nbsp;&lt;/div&gt;&lt;div style=&quot;font-size: 10px;&quot;&gt;Same container and IPC&lt;/div&gt;" style="text;html=1;align=center;verticalAlign=middle;resizable=0;points=[];autosize=1;strokeColor=none;fillColor=none;fontSize=10;" vertex="1" parent="vz__xgmZE1eOc8z8mBKd-136">
          <mxGeometry x="243.5" y="103" width="130" height="110" as="geometry" />
        </mxCell>
        <mxCell id="vz__xgmZE1eOc8z8mBKd-163" style="edgeStyle=orthogonalEdgeStyle;rounded=0;orthogonalLoop=1;jettySize=auto;html=1;exitX=0.5;exitY=1;exitDx=0;exitDy=0;entryX=0.081;entryY=0;entryDx=0;entryDy=0;entryPerimeter=0;" edge="1" parent="vz__xgmZE1eOc8z8mBKd-136" source="vz__xgmZE1eOc8z8mBKd-150" target="vz__xgmZE1eOc8z8mBKd-147">
          <mxGeometry relative="1" as="geometry" />
        </mxCell>
        <mxCell id="vz__xgmZE1eOc8z8mBKd-164" style="edgeStyle=orthogonalEdgeStyle;rounded=0;orthogonalLoop=1;jettySize=auto;html=1;exitX=0.5;exitY=1;exitDx=0;exitDy=0;entryX=0.301;entryY=-0.006;entryDx=0;entryDy=0;entryPerimeter=0;" edge="1" parent="vz__xgmZE1eOc8z8mBKd-136" source="vz__xgmZE1eOc8z8mBKd-153" target="vz__xgmZE1eOc8z8mBKd-147">
          <mxGeometry relative="1" as="geometry" />
        </mxCell>
        <mxCell id="vz__xgmZE1eOc8z8mBKd-165" style="edgeStyle=orthogonalEdgeStyle;rounded=0;orthogonalLoop=1;jettySize=auto;html=1;entryX=0.191;entryY=-0.013;entryDx=0;entryDy=0;entryPerimeter=0;exitX=1;exitY=0.75;exitDx=0;exitDy=0;" edge="1" parent="vz__xgmZE1eOc8z8mBKd-136">
          <mxGeometry relative="1" as="geometry">
            <mxPoint x="115" y="127.5" as="sourcePoint" />
            <mxPoint x="119.36549999999988" y="304.22000000000025" as="targetPoint" />
            <Array as="points">
              <mxPoint x="120" y="128" />
              <mxPoint x="120" y="233" />
              <mxPoint x="119" y="233" />
            </Array>
          </mxGeometry>
        </mxCell>
        <mxCell id="vz__xgmZE1eOc8z8mBKd-166" value="Syscall" style="text;html=1;align=center;verticalAlign=middle;resizable=0;points=[];autosize=1;strokeColor=none;fillColor=none;" vertex="1" parent="vz__xgmZE1eOc8z8mBKd-136">
          <mxGeometry x="170" y="274" width="60" height="30" as="geometry" />
        </mxCell>
        <mxCell id="vz__xgmZE1eOc8z8mBKd-167" value="Server" style="swimlane;whiteSpace=wrap;html=1;" vertex="1" parent="1">
          <mxGeometry x="1380" y="3811" width="521.5" height="388" as="geometry" />
        </mxCell>
        <mxCell id="vz__xgmZE1eOc8z8mBKd-168" value="ContainerA" style="swimlane;whiteSpace=wrap;html=1;" vertex="1" parent="vz__xgmZE1eOc8z8mBKd-167">
          <mxGeometry x="20" y="39" width="95" height="110" as="geometry" />
        </mxCell>
        <mxCell id="vz__xgmZE1eOc8z8mBKd-169" value="User Service" style="rounded=0;whiteSpace=wrap;html=1;" vertex="1" parent="vz__xgmZE1eOc8z8mBKd-168">
          <mxGeometry x="2.25" y="40" width="86.5" height="38.5" as="geometry" />
        </mxCell>
        <mxCell id="vz__xgmZE1eOc8z8mBKd-170" value="User Service" style="rounded=0;whiteSpace=wrap;html=1;" vertex="1" parent="vz__xgmZE1eOc8z8mBKd-168">
          <mxGeometry x="6" y="45" width="86.5" height="38.5" as="geometry" />
        </mxCell>
        <mxCell id="vz__xgmZE1eOc8z8mBKd-171" style="edgeStyle=orthogonalEdgeStyle;rounded=0;orthogonalLoop=1;jettySize=auto;html=1;entryX=0.191;entryY=-0.001;entryDx=0;entryDy=0;entryPerimeter=0;" edge="1" parent="vz__xgmZE1eOc8z8mBKd-167" target="vz__xgmZE1eOc8z8mBKd-178">
          <mxGeometry relative="1" as="geometry">
            <mxPoint x="124.98206278026919" y="121.52466367712987" as="targetPoint" />
            <mxPoint x="125" y="120" as="sourcePoint" />
            <Array as="points">
              <mxPoint x="120" y="120" />
              <mxPoint x="120" y="227" />
              <mxPoint x="119" y="227" />
            </Array>
          </mxGeometry>
        </mxCell>
        <mxCell id="vz__xgmZE1eOc8z8mBKd-172" value="ContainerB" style="swimlane;whiteSpace=wrap;html=1;" vertex="1" parent="vz__xgmZE1eOc8z8mBKd-167">
          <mxGeometry x="125" y="39" width="95" height="110" as="geometry" />
        </mxCell>
        <mxCell id="vz__xgmZE1eOc8z8mBKd-173" value="User Service" style="rounded=0;whiteSpace=wrap;html=1;" vertex="1" parent="vz__xgmZE1eOc8z8mBKd-172">
          <mxGeometry x="2.3799999999999955" y="38.5" width="86.5" height="38.5" as="geometry" />
        </mxCell>
        <mxCell id="vz__xgmZE1eOc8z8mBKd-174" value="User Service" style="rounded=0;whiteSpace=wrap;html=1;" vertex="1" parent="vz__xgmZE1eOc8z8mBKd-172">
          <mxGeometry x="6.1299999999999955" y="43.5" width="86.5" height="38.5" as="geometry" />
        </mxCell>
        <mxCell id="vz__xgmZE1eOc8z8mBKd-175" value="Sol CotainerA" style="swimlane;whiteSpace=wrap;html=1;fillColor=#f8cecc;strokeColor=#b85450;" vertex="1" parent="vz__xgmZE1eOc8z8mBKd-167">
          <mxGeometry x="390" y="39" width="95" height="110" as="geometry" />
        </mxCell>
        <mxCell id="vz__xgmZE1eOc8z8mBKd-176" value="User Service" style="rounded=0;whiteSpace=wrap;html=1;" vertex="1" parent="vz__xgmZE1eOc8z8mBKd-175">
          <mxGeometry x="2.25" y="38.5" width="86.5" height="38.5" as="geometry" />
        </mxCell>
        <mxCell id="vz__xgmZE1eOc8z8mBKd-177" value="communication&lt;br&gt;Program" style="rounded=0;whiteSpace=wrap;html=1;" vertex="1" parent="vz__xgmZE1eOc8z8mBKd-175">
          <mxGeometry x="6" y="43.5" width="86.5" height="38.5" as="geometry" />
        </mxCell>
        <mxCell id="vz__xgmZE1eOc8z8mBKd-178" value="커널" style="whiteSpace=wrap;html=1;" vertex="1" parent="vz__xgmZE1eOc8z8mBKd-167">
          <mxGeometry x="29.5" y="304" width="470.5" height="60" as="geometry" />
        </mxCell>
        <mxCell id="vz__xgmZE1eOc8z8mBKd-179" style="edgeStyle=orthogonalEdgeStyle;rounded=0;orthogonalLoop=1;jettySize=auto;html=1;entryX=0.5;entryY=1;entryDx=0;entryDy=0;" edge="1" parent="vz__xgmZE1eOc8z8mBKd-167" source="vz__xgmZE1eOc8z8mBKd-180" target="vz__xgmZE1eOc8z8mBKd-189">
          <mxGeometry relative="1" as="geometry" />
        </mxCell>
        <mxCell id="vz__xgmZE1eOc8z8mBKd-180" value="eBPF" style="text;html=1;align=center;verticalAlign=middle;resizable=0;points=[];autosize=1;strokeColor=#d6b656;fillColor=#fff2cc;sketch=1;curveFitting=1;jiggle=2;" vertex="1" parent="vz__xgmZE1eOc8z8mBKd-167">
          <mxGeometry x="308" y="321" width="48" height="26" as="geometry" />
        </mxCell>
        <mxCell id="vz__xgmZE1eOc8z8mBKd-181" value="ContainerC" style="swimlane;whiteSpace=wrap;html=1;" vertex="1" parent="vz__xgmZE1eOc8z8mBKd-167">
          <mxGeometry x="20" y="160" width="95" height="110" as="geometry" />
        </mxCell>
        <mxCell id="vz__xgmZE1eOc8z8mBKd-182" value="User Service" style="rounded=0;whiteSpace=wrap;html=1;" vertex="1" parent="vz__xgmZE1eOc8z8mBKd-181">
          <mxGeometry x="2.25" y="40" width="86.5" height="38.5" as="geometry" />
        </mxCell>
        <mxCell id="vz__xgmZE1eOc8z8mBKd-183" value="User Service" style="rounded=0;whiteSpace=wrap;html=1;" vertex="1" parent="vz__xgmZE1eOc8z8mBKd-181">
          <mxGeometry x="6" y="45" width="86.5" height="38.5" as="geometry" />
        </mxCell>
        <mxCell id="vz__xgmZE1eOc8z8mBKd-184" value="ContainerD" style="swimlane;whiteSpace=wrap;html=1;" vertex="1" parent="vz__xgmZE1eOc8z8mBKd-167">
          <mxGeometry x="125" y="160" width="95" height="110" as="geometry" />
        </mxCell>
        <mxCell id="vz__xgmZE1eOc8z8mBKd-185" value="User Service" style="rounded=0;whiteSpace=wrap;html=1;" vertex="1" parent="vz__xgmZE1eOc8z8mBKd-184">
          <mxGeometry x="2.3799999999999955" y="38.5" width="86.5" height="38.5" as="geometry" />
        </mxCell>
        <mxCell id="vz__xgmZE1eOc8z8mBKd-186" value="User Service" style="rounded=0;whiteSpace=wrap;html=1;" vertex="1" parent="vz__xgmZE1eOc8z8mBKd-184">
          <mxGeometry x="6.1299999999999955" y="43.5" width="86.5" height="38.5" as="geometry" />
        </mxCell>
        <mxCell id="vz__xgmZE1eOc8z8mBKd-187" value="Sol CotainerB" style="swimlane;whiteSpace=wrap;html=1;fillColor=#f8cecc;strokeColor=#b85450;" vertex="1" parent="vz__xgmZE1eOc8z8mBKd-167">
          <mxGeometry x="390" y="160" width="95" height="110" as="geometry" />
        </mxCell>
        <mxCell id="vz__xgmZE1eOc8z8mBKd-188" value="User Service" style="rounded=0;whiteSpace=wrap;html=1;" vertex="1" parent="vz__xgmZE1eOc8z8mBKd-187">
          <mxGeometry x="2.25" y="38.5" width="86.5" height="38.5" as="geometry" />
        </mxCell>
        <mxCell id="vz__xgmZE1eOc8z8mBKd-189" value="eBPF&lt;br&gt;User Program" style="rounded=0;whiteSpace=wrap;html=1;" vertex="1" parent="vz__xgmZE1eOc8z8mBKd-187">
          <mxGeometry x="6" y="43.5" width="86.5" height="38.5" as="geometry" />
        </mxCell>
        <mxCell id="vz__xgmZE1eOc8z8mBKd-190" value="&lt;h2&gt;.....&lt;/h2&gt;" style="text;html=1;align=center;verticalAlign=middle;resizable=0;points=[];autosize=1;strokeColor=none;fillColor=none;" vertex="1" parent="vz__xgmZE1eOc8z8mBKd-167">
          <mxGeometry x="220" y="185" width="50" height="60" as="geometry" />
        </mxCell>
        <mxCell id="vz__xgmZE1eOc8z8mBKd-191" value="&lt;h2&gt;.....&lt;/h2&gt;" style="text;html=1;align=center;verticalAlign=middle;resizable=0;points=[];autosize=1;strokeColor=none;fillColor=none;" vertex="1" parent="vz__xgmZE1eOc8z8mBKd-167">
          <mxGeometry x="220" y="64" width="50" height="60" as="geometry" />
        </mxCell>
        <mxCell id="vz__xgmZE1eOc8z8mBKd-192" style="edgeStyle=orthogonalEdgeStyle;rounded=0;orthogonalLoop=1;jettySize=auto;html=1;entryX=0;entryY=0.5;entryDx=0;entryDy=0;exitX=0.007;exitY=0.635;exitDx=0;exitDy=0;exitPerimeter=0;" edge="1" parent="vz__xgmZE1eOc8z8mBKd-167" source="vz__xgmZE1eOc8z8mBKd-188" target="vz__xgmZE1eOc8z8mBKd-177">
          <mxGeometry relative="1" as="geometry" />
        </mxCell>
        <mxCell id="vz__xgmZE1eOc8z8mBKd-193" value="Share log and policy&amp;nbsp;&lt;div style=&quot;font-size: 10px;&quot;&gt;with `volume`&lt;/div&gt;&lt;div style=&quot;font-size: 10px;&quot;&gt;&lt;br style=&quot;font-size: 10px;&quot;&gt;&lt;/div&gt;&lt;div style=&quot;font-size: 10px;&quot;&gt;or&lt;/div&gt;&lt;div style=&quot;font-size: 10px;&quot;&gt;&lt;br style=&quot;font-size: 10px;&quot;&gt;&lt;/div&gt;&lt;div style=&quot;font-size: 10px;&quot;&gt;Socket&amp;nbsp;&lt;/div&gt;&lt;div style=&quot;font-size: 10px;&quot;&gt;or&amp;nbsp;&lt;/div&gt;&lt;div style=&quot;font-size: 10px;&quot;&gt;Same container and IPC&lt;/div&gt;" style="text;html=1;align=center;verticalAlign=middle;resizable=0;points=[];autosize=1;strokeColor=none;fillColor=none;fontSize=10;" vertex="1" parent="vz__xgmZE1eOc8z8mBKd-167">
          <mxGeometry x="243.5" y="103" width="130" height="110" as="geometry" />
        </mxCell>
        <mxCell id="vz__xgmZE1eOc8z8mBKd-194" style="edgeStyle=orthogonalEdgeStyle;rounded=0;orthogonalLoop=1;jettySize=auto;html=1;exitX=0.5;exitY=1;exitDx=0;exitDy=0;entryX=0.081;entryY=0;entryDx=0;entryDy=0;entryPerimeter=0;" edge="1" parent="vz__xgmZE1eOc8z8mBKd-167" source="vz__xgmZE1eOc8z8mBKd-181" target="vz__xgmZE1eOc8z8mBKd-178">
          <mxGeometry relative="1" as="geometry" />
        </mxCell>
        <mxCell id="vz__xgmZE1eOc8z8mBKd-195" style="edgeStyle=orthogonalEdgeStyle;rounded=0;orthogonalLoop=1;jettySize=auto;html=1;exitX=0.5;exitY=1;exitDx=0;exitDy=0;entryX=0.301;entryY=-0.006;entryDx=0;entryDy=0;entryPerimeter=0;" edge="1" parent="vz__xgmZE1eOc8z8mBKd-167" source="vz__xgmZE1eOc8z8mBKd-184" target="vz__xgmZE1eOc8z8mBKd-178">
          <mxGeometry relative="1" as="geometry" />
        </mxCell>
        <mxCell id="vz__xgmZE1eOc8z8mBKd-196" style="edgeStyle=orthogonalEdgeStyle;rounded=0;orthogonalLoop=1;jettySize=auto;html=1;entryX=0.191;entryY=-0.013;entryDx=0;entryDy=0;entryPerimeter=0;exitX=1;exitY=0.75;exitDx=0;exitDy=0;" edge="1" parent="vz__xgmZE1eOc8z8mBKd-167">
          <mxGeometry relative="1" as="geometry">
            <mxPoint x="115" y="127.5" as="sourcePoint" />
            <mxPoint x="119.36549999999988" y="304.22000000000025" as="targetPoint" />
            <Array as="points">
              <mxPoint x="120" y="128" />
              <mxPoint x="120" y="233" />
              <mxPoint x="119" y="233" />
            </Array>
          </mxGeometry>
        </mxCell>
        <mxCell id="vz__xgmZE1eOc8z8mBKd-197" value="Syscall" style="text;html=1;align=center;verticalAlign=middle;resizable=0;points=[];autosize=1;strokeColor=none;fillColor=none;" vertex="1" parent="vz__xgmZE1eOc8z8mBKd-167">
          <mxGeometry x="172" y="274" width="60" height="30" as="geometry" />
        </mxCell>
        <mxCell id="vz__xgmZE1eOc8z8mBKd-198" style="edgeStyle=orthogonalEdgeStyle;rounded=0;orthogonalLoop=1;jettySize=auto;html=1;exitX=0.5;exitY=0;exitDx=0;exitDy=0;entryX=0.5;entryY=1;entryDx=0;entryDy=0;" edge="1" parent="1" source="vz__xgmZE1eOc8z8mBKd-144">
          <mxGeometry relative="1" as="geometry">
            <mxPoint x="1540.75" y="3690" as="targetPoint" />
          </mxGeometry>
        </mxCell>
        <mxCell id="vz__xgmZE1eOc8z8mBKd-199" style="edgeStyle=orthogonalEdgeStyle;rounded=0;orthogonalLoop=1;jettySize=auto;html=1;exitX=0.5;exitY=0;exitDx=0;exitDy=0;entryX=0.5;entryY=1;entryDx=0;entryDy=0;" edge="1" parent="1" source="vz__xgmZE1eOc8z8mBKd-175">
          <mxGeometry relative="1" as="geometry">
            <mxPoint x="1540.75" y="3690" as="targetPoint" />
          </mxGeometry>
        </mxCell>
        <mxCell id="vz__xgmZE1eOc8z8mBKd-200" value="&lt;div style=&quot;&quot;&gt;&lt;span style=&quot;background-color: initial;&quot;&gt;1. 컨테이너 목록 확인&lt;/span&gt;&lt;/div&gt;&lt;div style=&quot;&quot;&gt;&lt;span style=&quot;background-color: initial;&quot;&gt;2. 로그 정보 저장&lt;/span&gt;&lt;/div&gt;&lt;div style=&quot;&quot;&gt;&lt;span style=&quot;background-color: initial;&quot;&gt;3. 상태 정보 중앙 전송&lt;/span&gt;&lt;/div&gt;" style="whiteSpace=wrap;html=1;align=left;verticalAlign=middle;treeFolding=1;treeMoving=1;newEdgeStyle={&quot;edgeStyle&quot;:&quot;elbowEdgeStyle&quot;,&quot;startArrow&quot;:&quot;none&quot;,&quot;endArrow&quot;:&quot;none&quot;};" vertex="1" parent="1">
          <mxGeometry x="1920" y="3897.25" width="130" height="60" as="geometry" />
        </mxCell>
        <mxCell id="vz__xgmZE1eOc8z8mBKd-201" value="" style="edgeStyle=elbowEdgeStyle;elbow=vertical;sourcePerimeterSpacing=0;targetPerimeterSpacing=0;startArrow=none;endArrow=none;rounded=0;curved=0;exitX=1;exitY=0.5;exitDx=0;exitDy=0;" edge="1" parent="1" source="vz__xgmZE1eOc8z8mBKd-177" target="vz__xgmZE1eOc8z8mBKd-200">
          <mxGeometry relative="1" as="geometry">
            <mxPoint x="1870" y="3915" as="sourcePoint" />
          </mxGeometry>
        </mxCell>
        <mxCell id="vz__xgmZE1eOc8z8mBKd-202" value="1. 정책 map 전송 커널에서 전송한 결과 수집" style="whiteSpace=wrap;html=1;align=left;verticalAlign=middle;treeFolding=1;treeMoving=1;newEdgeStyle={&quot;edgeStyle&quot;:&quot;elbowEdgeStyle&quot;,&quot;startArrow&quot;:&quot;none&quot;,&quot;endArrow&quot;:&quot;none&quot;};" vertex="1" parent="1">
          <mxGeometry x="1920" y="4002.25" width="130" height="60" as="geometry" />
        </mxCell>
        <mxCell id="vz__xgmZE1eOc8z8mBKd-203" value="" style="edgeStyle=elbowEdgeStyle;elbow=vertical;sourcePerimeterSpacing=0;targetPerimeterSpacing=0;startArrow=none;endArrow=none;rounded=0;curved=0;exitX=1.003;exitY=0.415;exitDx=0;exitDy=0;exitPerimeter=0;" edge="1" parent="1" source="vz__xgmZE1eOc8z8mBKd-189" target="vz__xgmZE1eOc8z8mBKd-202">
          <mxGeometry relative="1" as="geometry">
            <mxPoint x="1870" y="4030" as="sourcePoint" />
          </mxGeometry>
        </mxCell>
        <mxCell id="vz__xgmZE1eOc8z8mBKd-204" value="If want can use MQ like Kafka" style="strokeWidth=2;html=1;shape=mxgraph.flowchart.direct_data;whiteSpace=wrap;" vertex="1" parent="1">
          <mxGeometry x="1404" y="3752.25" width="275" height="40" as="geometry" />
        </mxCell>
        <mxCell id="vz__xgmZE1eOc8z8mBKd-205" value="Policy Back" style="whiteSpace=wrap;html=1;" vertex="1" parent="1">
          <mxGeometry x="1481.5" y="3630" width="120" height="60" as="geometry" />
        </mxCell>
        <mxCell id="vz__xgmZE1eOc8z8mBKd-206" value="Policy Front" style="whiteSpace=wrap;html=1;" vertex="1" parent="1">
          <mxGeometry x="1481.5" y="3560" width="120" height="60" as="geometry" />
        </mxCell>
        <mxCell id="vz__xgmZE1eOc8z8mBKd-207" value="&lt;h1 style=&quot;margin-top: 0px;&quot;&gt;2안&lt;/h1&gt;&lt;p&gt;중앙 집중형으로 관리&lt;/p&gt;&lt;p&gt;최종 목표 중 하나&lt;/p&gt;" style="text;html=1;whiteSpace=wrap;overflow=hidden;rounded=0;" vertex="1" parent="1">
          <mxGeometry x="810" y="3560" width="180" height="120" as="geometry" />
        </mxCell>
        <mxCell id="vz__xgmZE1eOc8z8mBKd-208" style="rounded=0;orthogonalLoop=1;jettySize=auto;html=1;exitX=1;exitY=0.5;exitDx=0;exitDy=0;endArrow=classic;endFill=1;startArrow=classic;startFill=1;" edge="1" parent="1" source="vz__xgmZE1eOc8z8mBKd-216" target="vz__xgmZE1eOc8z8mBKd-211">
          <mxGeometry relative="1" as="geometry">
            <mxPoint x="660" y="3798" as="targetPoint" />
          </mxGeometry>
        </mxCell>
        <mxCell id="vz__xgmZE1eOc8z8mBKd-209" style="edgeStyle=orthogonalEdgeStyle;rounded=0;orthogonalLoop=1;jettySize=auto;html=1;exitX=1;exitY=0.25;exitDx=0;exitDy=0;entryX=1;entryY=0.5;entryDx=0;entryDy=0;" edge="1" parent="1" source="vz__xgmZE1eOc8z8mBKd-128" target="vz__xgmZE1eOc8z8mBKd-215">
          <mxGeometry relative="1" as="geometry" />
        </mxCell>
        <mxCell id="vz__xgmZE1eOc8z8mBKd-210" value="&lt;div style=&quot;text-align: left;&quot;&gt;&lt;div&gt;&lt;b&gt;We Have three Option&lt;/b&gt;&lt;span style=&quot;background-color: initial; text-wrap: nowrap;&quot;&gt;&lt;br&gt;&lt;/span&gt;&lt;/div&gt;&lt;div&gt;&lt;span style=&quot;background-color: initial; text-wrap: nowrap;&quot;&gt;①&amp;nbsp;&lt;/span&gt;&lt;span style=&quot;background-color: initial; text-wrap: nowrap;&quot;&gt;Share log and policy&amp;nbsp;&lt;/span&gt;&lt;/div&gt;&lt;div style=&quot;text-wrap: nowrap;&quot;&gt;with `volume`&lt;/div&gt;&lt;div style=&quot;text-wrap: nowrap;&quot;&gt;&lt;span style=&quot;background-color: initial; font-size: 12px;&quot;&gt;② IPC(Socket, MQ Etc.)&lt;/span&gt;&lt;/div&gt;&lt;div style=&quot;text-wrap: nowrap;&quot;&gt;③ connect port&lt;/div&gt;&lt;/div&gt;" style="whiteSpace=wrap;html=1;align=center;verticalAlign=middle;treeFolding=1;treeMoving=1;newEdgeStyle={&quot;edgeStyle&quot;:&quot;elbowEdgeStyle&quot;,&quot;startArrow&quot;:&quot;none&quot;,&quot;endArrow&quot;:&quot;none&quot;};fillColor=#dae8fc;strokeColor=#6c8ebf;sketch=1;curveFitting=1;jiggle=2;" vertex="1" parent="1">
          <mxGeometry x="560" y="3910" width="130" height="97.75" as="geometry" />
        </mxCell>
        <mxCell id="vz__xgmZE1eOc8z8mBKd-211" value="Actor" style="shape=umlActor;verticalLabelPosition=bottom;verticalAlign=top;html=1;outlineConnect=0;" vertex="1" parent="1">
          <mxGeometry x="682" y="3762.75" width="30" height="47" as="geometry" />
        </mxCell>
        <mxCell id="vz__xgmZE1eOc8z8mBKd-212" value="Show&amp;nbsp;&lt;div&gt;Policy &amp;amp;&amp;nbsp;&lt;span style=&quot;background-color: initial;&quot;&gt;Log&lt;/span&gt;&lt;/div&gt;" style="text;html=1;align=center;verticalAlign=middle;resizable=0;points=[];autosize=1;strokeColor=none;fillColor=none;" vertex="1" parent="1">
          <mxGeometry x="585" y="3749.25" width="90" height="40" as="geometry" />
        </mxCell>
        <mxCell id="vz__xgmZE1eOc8z8mBKd-213" value="" style="group" vertex="1" connectable="0" parent="1">
          <mxGeometry x="410" y="3741" width="95" height="110" as="geometry" />
        </mxCell>
        <mxCell id="vz__xgmZE1eOc8z8mBKd-214" value="&lt;font style=&quot;font-size: 11px;&quot;&gt;Policy Container&lt;/font&gt;" style="swimlane;whiteSpace=wrap;html=1;fillColor=#f8cecc;strokeColor=#b85450;" vertex="1" parent="vz__xgmZE1eOc8z8mBKd-213">
          <mxGeometry width="95" height="110" as="geometry" />
        </mxCell>
        <mxCell id="vz__xgmZE1eOc8z8mBKd-215" value="Policy Back" style="rounded=0;whiteSpace=wrap;html=1;" vertex="1" parent="vz__xgmZE1eOc8z8mBKd-214">
          <mxGeometry x="4" y="68.5" width="86.5" height="38.5" as="geometry" />
        </mxCell>
        <mxCell id="vz__xgmZE1eOc8z8mBKd-216" value="Policy Front" style="rounded=0;whiteSpace=wrap;html=1;" vertex="1" parent="vz__xgmZE1eOc8z8mBKd-213">
          <mxGeometry x="4" y="26" width="86.5" height="38.5" as="geometry" />
        </mxCell>
        <mxCell id="vz__xgmZE1eOc8z8mBKd-217" value="Socket(API)" style="text;html=1;align=center;verticalAlign=middle;resizable=0;points=[];autosize=1;strokeColor=none;fillColor=none;" vertex="1" parent="1">
          <mxGeometry x="520" y="3840" width="90" height="30" as="geometry" />
        </mxCell>
        <mxCell id="vz__xgmZE1eOc8z8mBKd-218" value="Text" style="text;html=1;align=center;verticalAlign=middle;whiteSpace=wrap;rounded=0;" vertex="1" parent="1">
          <mxGeometry x="3090" y="2890" width="60" height="30" as="geometry" />
        </mxCell>
        <mxCell id="vz__xgmZE1eOc8z8mBKd-219" value="Server" style="swimlane;whiteSpace=wrap;html=1;sketch=1;curveFitting=1;jiggle=2;" vertex="1" parent="1">
          <mxGeometry x="2330" y="3620" width="883" height="750" as="geometry" />
        </mxCell>
        <mxCell id="vz__xgmZE1eOc8z8mBKd-220" value="" style="endArrow=none;dashed=1;html=1;rounded=0;strokeWidth=3;sketch=1;curveFitting=1;jiggle=2;" edge="1" parent="vz__xgmZE1eOc8z8mBKd-219">
          <mxGeometry width="50" height="50" relative="1" as="geometry">
            <mxPoint x="10" y="430" as="sourcePoint" />
            <mxPoint x="870" y="430" as="targetPoint" />
          </mxGeometry>
        </mxCell>
        <mxCell id="vz__xgmZE1eOc8z8mBKd-221" value="" style="whiteSpace=wrap;html=1;sketch=1;curveFitting=1;jiggle=2;" vertex="1" parent="vz__xgmZE1eOc8z8mBKd-219">
          <mxGeometry x="29.5" y="560" width="770.5" height="170" as="geometry" />
        </mxCell>
        <mxCell id="vz__xgmZE1eOc8z8mBKd-222" value="ContainerA" style="swimlane;whiteSpace=wrap;html=1;sketch=1;curveFitting=1;jiggle=2;" vertex="1" parent="vz__xgmZE1eOc8z8mBKd-219">
          <mxGeometry x="20" y="57" width="95" height="110" as="geometry" />
        </mxCell>
        <mxCell id="vz__xgmZE1eOc8z8mBKd-223" value="User Service" style="rounded=0;whiteSpace=wrap;html=1;sketch=1;curveFitting=1;jiggle=2;" vertex="1" parent="vz__xgmZE1eOc8z8mBKd-222">
          <mxGeometry x="2.25" y="40" width="86.5" height="38.5" as="geometry" />
        </mxCell>
        <mxCell id="vz__xgmZE1eOc8z8mBKd-224" value="User Service" style="rounded=0;whiteSpace=wrap;html=1;sketch=1;curveFitting=1;jiggle=2;" vertex="1" parent="vz__xgmZE1eOc8z8mBKd-222">
          <mxGeometry x="6" y="45" width="86.5" height="38.5" as="geometry" />
        </mxCell>
        <mxCell id="vz__xgmZE1eOc8z8mBKd-225" value="ContainerC" style="swimlane;whiteSpace=wrap;html=1;sketch=1;curveFitting=1;jiggle=2;" vertex="1" parent="vz__xgmZE1eOc8z8mBKd-219">
          <mxGeometry x="125" y="57" width="95" height="110" as="geometry" />
        </mxCell>
        <mxCell id="vz__xgmZE1eOc8z8mBKd-226" value="User Service" style="rounded=0;whiteSpace=wrap;html=1;sketch=1;curveFitting=1;jiggle=2;" vertex="1" parent="vz__xgmZE1eOc8z8mBKd-225">
          <mxGeometry x="2.3799999999999955" y="38.5" width="86.5" height="38.5" as="geometry" />
        </mxCell>
        <mxCell id="vz__xgmZE1eOc8z8mBKd-227" value="User Service" style="rounded=0;whiteSpace=wrap;html=1;sketch=1;curveFitting=1;jiggle=2;" vertex="1" parent="vz__xgmZE1eOc8z8mBKd-225">
          <mxGeometry x="6.1299999999999955" y="43.5" width="86.5" height="38.5" as="geometry" />
        </mxCell>
        <mxCell id="vz__xgmZE1eOc8z8mBKd-228" value="" style="group;sketch=1;curveFitting=1;jiggle=2;fillColor=default;" connectable="0" vertex="1" parent="vz__xgmZE1eOc8z8mBKd-219">
          <mxGeometry x="388" y="395" width="80" height="70" as="geometry" />
        </mxCell>
        <mxCell id="vz__xgmZE1eOc8z8mBKd-229" value="" style="shape=internalStorage;whiteSpace=wrap;html=1;backgroundOutline=1;dx=10;dy=10;sketch=1;curveFitting=1;jiggle=2;" vertex="1" parent="vz__xgmZE1eOc8z8mBKd-228">
          <mxGeometry width="80" height="70" as="geometry" />
        </mxCell>
        <mxCell id="vz__xgmZE1eOc8z8mBKd-230" value="&lt;font style=&quot;font-size: 14px;&quot;&gt;Policy&lt;br&gt;map&lt;/font&gt;" style="text;html=1;align=center;verticalAlign=middle;resizable=0;points=[];autosize=1;strokeColor=none;fillColor=none;sketch=1;curveFitting=1;jiggle=2;" vertex="1" parent="vz__xgmZE1eOc8z8mBKd-228">
          <mxGeometry x="13" y="15" width="60" height="50" as="geometry" />
        </mxCell>
        <mxCell id="vz__xgmZE1eOc8z8mBKd-231" value="" style="endArrow=classic;html=1;rounded=0;exitX=0.003;exitY=0.568;exitDx=0;exitDy=0;exitPerimeter=0;entryX=0.004;entryY=0.424;entryDx=0;entryDy=0;entryPerimeter=0;sketch=1;curveFitting=1;jiggle=2;" edge="1" parent="vz__xgmZE1eOc8z8mBKd-219" source="vz__xgmZE1eOc8z8mBKd-248" target="vz__xgmZE1eOc8z8mBKd-244">
          <mxGeometry width="50" height="50" relative="1" as="geometry">
            <mxPoint x="500" y="190" as="sourcePoint" />
            <mxPoint x="500" y="260" as="targetPoint" />
            <Array as="points">
              <mxPoint x="500" y="206" />
              <mxPoint x="500" y="304" />
            </Array>
          </mxGeometry>
        </mxCell>
        <mxCell id="vz__xgmZE1eOc8z8mBKd-232" value="&lt;font style=&quot;font-size: 12px;&quot;&gt;Policy Yaml&lt;/font&gt;" style="text;html=1;align=center;verticalAlign=middle;whiteSpace=wrap;rounded=0;sketch=1;curveFitting=1;jiggle=2;" vertex="1" parent="vz__xgmZE1eOc8z8mBKd-219">
          <mxGeometry x="420" y="240" width="70" height="30" as="geometry" />
        </mxCell>
        <mxCell id="vz__xgmZE1eOc8z8mBKd-233" value="ContainerB" style="swimlane;whiteSpace=wrap;html=1;sketch=1;curveFitting=1;jiggle=2;" vertex="1" parent="vz__xgmZE1eOc8z8mBKd-219">
          <mxGeometry x="20" y="178" width="95" height="110" as="geometry" />
        </mxCell>
        <mxCell id="vz__xgmZE1eOc8z8mBKd-234" value="User Service" style="rounded=0;whiteSpace=wrap;html=1;sketch=1;curveFitting=1;jiggle=2;" vertex="1" parent="vz__xgmZE1eOc8z8mBKd-233">
          <mxGeometry x="2.25" y="40" width="86.5" height="38.5" as="geometry" />
        </mxCell>
        <mxCell id="vz__xgmZE1eOc8z8mBKd-235" value="User Service" style="rounded=0;whiteSpace=wrap;html=1;sketch=1;curveFitting=1;jiggle=2;" vertex="1" parent="vz__xgmZE1eOc8z8mBKd-233">
          <mxGeometry x="6" y="45" width="86.5" height="38.5" as="geometry" />
        </mxCell>
        <mxCell id="vz__xgmZE1eOc8z8mBKd-236" value="ContainerD" style="swimlane;whiteSpace=wrap;html=1;sketch=1;curveFitting=1;jiggle=2;" vertex="1" parent="vz__xgmZE1eOc8z8mBKd-219">
          <mxGeometry x="125" y="178" width="95" height="110" as="geometry" />
        </mxCell>
        <mxCell id="vz__xgmZE1eOc8z8mBKd-237" value="User Service" style="rounded=0;whiteSpace=wrap;html=1;sketch=1;curveFitting=1;jiggle=2;" vertex="1" parent="vz__xgmZE1eOc8z8mBKd-236">
          <mxGeometry x="2.3799999999999955" y="38.5" width="86.5" height="38.5" as="geometry" />
        </mxCell>
        <mxCell id="vz__xgmZE1eOc8z8mBKd-238" value="User Service" style="rounded=0;whiteSpace=wrap;html=1;sketch=1;curveFitting=1;jiggle=2;" vertex="1" parent="vz__xgmZE1eOc8z8mBKd-236">
          <mxGeometry x="6.1299999999999955" y="43.5" width="86.5" height="38.5" as="geometry" />
        </mxCell>
        <mxCell id="vz__xgmZE1eOc8z8mBKd-239" value="&lt;h2&gt;.....&lt;/h2&gt;" style="text;html=1;align=center;verticalAlign=middle;resizable=0;points=[];autosize=1;sketch=1;curveFitting=1;jiggle=2;" vertex="1" parent="vz__xgmZE1eOc8z8mBKd-219">
          <mxGeometry x="217.5" y="200" width="50" height="60" as="geometry" />
        </mxCell>
        <mxCell id="vz__xgmZE1eOc8z8mBKd-240" value="&lt;h2&gt;.....&lt;/h2&gt;" style="text;html=1;align=center;verticalAlign=middle;resizable=0;points=[];autosize=1;sketch=1;curveFitting=1;jiggle=2;" vertex="1" parent="vz__xgmZE1eOc8z8mBKd-219">
          <mxGeometry x="217.5" y="82" width="50" height="60" as="geometry" />
        </mxCell>
        <mxCell id="vz__xgmZE1eOc8z8mBKd-241" style="edgeStyle=orthogonalEdgeStyle;rounded=0;orthogonalLoop=1;jettySize=auto;html=1;exitX=0.016;exitY=0.879;exitDx=0;exitDy=0;exitPerimeter=0;sketch=1;curveFitting=1;jiggle=2;fillColor=#bac8d3;strokeColor=#000000;strokeWidth=1;" edge="1" parent="vz__xgmZE1eOc8z8mBKd-219" source="vz__xgmZE1eOc8z8mBKd-244" target="vz__xgmZE1eOc8z8mBKd-229">
          <mxGeometry relative="1" as="geometry">
            <Array as="points">
              <mxPoint x="545" y="320" />
              <mxPoint x="430" y="320" />
            </Array>
          </mxGeometry>
        </mxCell>
        <mxCell id="vz__xgmZE1eOc8z8mBKd-242" style="edgeStyle=orthogonalEdgeStyle;rounded=0;orthogonalLoop=1;jettySize=auto;html=1;exitX=0.75;exitY=1;exitDx=0;exitDy=0;entryX=1;entryY=0.5;entryDx=0;entryDy=0;sketch=1;curveFitting=1;jiggle=2;" edge="1" parent="vz__xgmZE1eOc8z8mBKd-219" source="vz__xgmZE1eOc8z8mBKd-243" target="vz__xgmZE1eOc8z8mBKd-275">
          <mxGeometry relative="1" as="geometry" />
        </mxCell>
        <mxCell id="vz__xgmZE1eOc8z8mBKd-243" value="Daemon" style="swimlane;whiteSpace=wrap;html=1;fillColor=#f8cecc;strokeColor=#b85450;sketch=1;curveFitting=1;jiggle=2;" vertex="1" parent="vz__xgmZE1eOc8z8mBKd-219">
          <mxGeometry x="540" y="260" width="188" height="70" as="geometry" />
        </mxCell>
        <mxCell id="vz__xgmZE1eOc8z8mBKd-244" value="eBPF&lt;span style=&quot;color: rgba(0, 0, 0, 0); font-family: monospace; font-size: 0px; text-align: start; text-wrap: nowrap;&quot;&gt;%3CmxGraphModel%3E%3Croot%3E%3CmxCell%20id%3D%220%22%2F%3E%3CmxCell%20id%3D%221%22%20parent%3D%220%22%2F%3E%3CmxCell%20id%3D%222%22%20value%3D%22Daemon%22%20style%3D%22swimlane%3BwhiteSpace%3Dwrap%3Bhtml%3D1%3BfillColor%3D%23f8cecc%3BstrokeColor%3D%23b85450%3Bsketch%3D1%3BcurveFitting%3D1%3Bjiggle%3D2%3B%22%20vertex%3D%221%22%20parent%3D%221%22%3E%3CmxGeometry%20x%3D%222930%22%20y%3D%223920%22%20width%3D%22188%22%20height%3D%2270%22%20as%3D%22geometry%22%2F%3E%3C%2FmxCell%3E%3CmxCell%20id%3D%223%22%20value%3D%22eBPF%26lt%3Bbr%26gt%3BUser%20Program%22%20style%3D%22rounded%3D0%3BwhiteSpace%3Dwrap%3Bhtml%3D1%3Bsketch%3D1%3BcurveFitting%3D1%3Bjiggle%3D2%3B%22%20vertex%3D%221%22%20parent%3D%222%22%3E%3CmxGeometry%20x%3D%224%22%20y%3D%2227.5%22%20width%3D%2286.5%22%20height%3D%2238.5%22%20as%3D%22geometry%22%2F%3E%3C%2FmxCell%3E%3C%2Froot%3E%3C%2FmxGraphModel%3E&lt;/span&gt;&lt;br&gt;User Program" style="rounded=0;whiteSpace=wrap;html=1;sketch=1;curveFitting=1;jiggle=2;" vertex="1" parent="vz__xgmZE1eOc8z8mBKd-243">
          <mxGeometry x="4" y="27.5" width="78" height="38.5" as="geometry" />
        </mxCell>
        <mxCell id="vz__xgmZE1eOc8z8mBKd-245" value="&lt;font style=&quot;&quot;&gt;Resource Accounting&lt;/font&gt;" style="rounded=0;whiteSpace=wrap;html=1;sketch=1;curveFitting=1;jiggle=2;fontSize=12;" vertex="1" parent="vz__xgmZE1eOc8z8mBKd-243">
          <mxGeometry x="88" y="27.5" width="96" height="38.5" as="geometry" />
        </mxCell>
        <mxCell id="vz__xgmZE1eOc8z8mBKd-246" value="Apply the policy" style="text;whiteSpace=wrap;sketch=1;curveFitting=1;jiggle=2;align=center;" vertex="1" parent="vz__xgmZE1eOc8z8mBKd-219">
          <mxGeometry x="780" y="81" width="97" height="29" as="geometry" />
        </mxCell>
        <mxCell id="vz__xgmZE1eOc8z8mBKd-247" value="Data Bridge" style="swimlane;whiteSpace=wrap;html=1;fillColor=#f8cecc;strokeColor=#b85450;startSize=23;sketch=1;curveFitting=1;jiggle=2;" vertex="1" parent="vz__xgmZE1eOc8z8mBKd-219">
          <mxGeometry x="538" y="155" width="190" height="70" as="geometry" />
        </mxCell>
        <mxCell id="vz__xgmZE1eOc8z8mBKd-248" value="Policy Back" style="rounded=0;whiteSpace=wrap;html=1;sketch=1;curveFitting=1;jiggle=2;" vertex="1" parent="vz__xgmZE1eOc8z8mBKd-247">
          <mxGeometry x="5.5" y="29" width="86.5" height="38.5" as="geometry" />
        </mxCell>
        <mxCell id="vz__xgmZE1eOc8z8mBKd-249" value="DB" style="rounded=0;whiteSpace=wrap;html=1;sketch=1;curveFitting=1;jiggle=2;" vertex="1" parent="vz__xgmZE1eOc8z8mBKd-247">
          <mxGeometry x="99" y="29" width="86.5" height="37.5" as="geometry" />
        </mxCell>
        <mxCell id="vz__xgmZE1eOc8z8mBKd-250" style="rounded=0;orthogonalLoop=1;jettySize=auto;html=1;exitX=1;exitY=0.5;exitDx=0;exitDy=0;endArrow=classic;endFill=1;startArrow=classic;startFill=1;sketch=1;curveFitting=1;jiggle=2;" edge="1" parent="vz__xgmZE1eOc8z8mBKd-219" source="vz__xgmZE1eOc8z8mBKd-256">
          <mxGeometry relative="1" as="geometry">
            <mxPoint x="930" y="75" as="targetPoint" />
          </mxGeometry>
        </mxCell>
        <mxCell id="vz__xgmZE1eOc8z8mBKd-251" value="" style="verticalLabelPosition=bottom;verticalAlign=top;html=1;shape=mxgraph.flowchart.parallel_mode;pointerEvents=1;direction=south;sketch=1;curveFitting=1;jiggle=2;" vertex="1" parent="vz__xgmZE1eOc8z8mBKd-219">
          <mxGeometry x="568" y="380" width="57" height="130" as="geometry" />
        </mxCell>
        <mxCell id="vz__xgmZE1eOc8z8mBKd-252" value="Log" style="text;html=1;align=center;verticalAlign=middle;resizable=0;points=[];autosize=1;strokeColor=none;fillColor=none;sketch=1;curveFitting=1;jiggle=2;" vertex="1" parent="vz__xgmZE1eOc8z8mBKd-219">
          <mxGeometry x="625" y="390" width="40" height="30" as="geometry" />
        </mxCell>
        <mxCell id="vz__xgmZE1eOc8z8mBKd-253" style="edgeStyle=orthogonalEdgeStyle;rounded=0;orthogonalLoop=1;jettySize=auto;html=1;entryX=1;entryY=0.5;entryDx=0;entryDy=0;entryPerimeter=0;sketch=1;curveFitting=1;jiggle=2;fillColor=#e3c800;strokeColor=#000000;strokeWidth=1;" edge="1" parent="vz__xgmZE1eOc8z8mBKd-219" source="vz__xgmZE1eOc8z8mBKd-277" target="vz__xgmZE1eOc8z8mBKd-251">
          <mxGeometry relative="1" as="geometry">
            <mxPoint x="510" y="660" as="sourcePoint" />
          </mxGeometry>
        </mxCell>
        <mxCell id="vz__xgmZE1eOc8z8mBKd-254" value="&lt;font style=&quot;font-size: 14px;&quot;&gt;Ring Buffer&lt;/font&gt;" style="text;html=1;align=center;verticalAlign=middle;resizable=0;points=[];autosize=1;strokeColor=none;fillColor=none;fontSize=17;sketch=1;curveFitting=1;jiggle=2;" vertex="1" parent="vz__xgmZE1eOc8z8mBKd-219">
          <mxGeometry x="478" y="450" width="90" height="30" as="geometry" />
        </mxCell>
        <mxCell id="vz__xgmZE1eOc8z8mBKd-255" value="&lt;font style=&quot;font-size: 11px;&quot;&gt;GUI&lt;/font&gt;" style="swimlane;whiteSpace=wrap;html=1;fillColor=#f8cecc;strokeColor=#b85450;sketch=1;curveFitting=1;jiggle=2;" vertex="1" parent="vz__xgmZE1eOc8z8mBKd-219">
          <mxGeometry x="630" y="30" width="95" height="70" as="geometry" />
        </mxCell>
        <mxCell id="vz__xgmZE1eOc8z8mBKd-256" value="Policy Front" style="rounded=0;whiteSpace=wrap;html=1;sketch=1;curveFitting=1;jiggle=2;" vertex="1" parent="vz__xgmZE1eOc8z8mBKd-219">
          <mxGeometry x="634" y="56" width="86.5" height="38.5" as="geometry" />
        </mxCell>
        <mxCell id="vz__xgmZE1eOc8z8mBKd-257" value="" style="endArrow=classic;html=1;rounded=0;exitX=0.5;exitY=1;exitDx=0;exitDy=0;sketch=1;curveFitting=1;jiggle=2;flowAnimation=0;entryX=0.589;entryY=0.005;entryDx=0;entryDy=0;entryPerimeter=0;" edge="1" parent="vz__xgmZE1eOc8z8mBKd-219" target="vz__xgmZE1eOc8z8mBKd-247">
          <mxGeometry width="50" height="50" relative="1" as="geometry">
            <mxPoint x="649.5" y="100" as="sourcePoint" />
            <mxPoint x="650" y="140" as="targetPoint" />
          </mxGeometry>
        </mxCell>
        <mxCell id="vz__xgmZE1eOc8z8mBKd-258" value="Show&lt;div&gt;Policy &amp;amp;&amp;nbsp;&lt;span style=&quot;background-color: initial;&quot;&gt;Log&lt;/span&gt;&lt;/div&gt;" style="text;html=1;align=center;verticalAlign=middle;resizable=0;points=[];autosize=1;strokeColor=none;fillColor=none;sketch=1;curveFitting=1;jiggle=2;" vertex="1" parent="vz__xgmZE1eOc8z8mBKd-219">
          <mxGeometry x="780" y="32" width="90" height="40" as="geometry" />
        </mxCell>
        <mxCell id="vz__xgmZE1eOc8z8mBKd-259" value="&lt;font style=&quot;font-size: 12px;&quot;&gt;Policy Argument&lt;/font&gt;" style="text;html=1;align=center;verticalAlign=middle;whiteSpace=wrap;rounded=0;" vertex="1" parent="vz__xgmZE1eOc8z8mBKd-219">
          <mxGeometry x="583" y="116.5" width="60" height="25.5" as="geometry" />
        </mxCell>
        <mxCell id="vz__xgmZE1eOc8z8mBKd-260" value="&lt;font style=&quot;font-size: 12px;&quot;&gt;Log, Status&lt;/font&gt;" style="text;html=1;align=center;verticalAlign=middle;whiteSpace=wrap;rounded=0;" vertex="1" parent="vz__xgmZE1eOc8z8mBKd-219">
          <mxGeometry x="709" y="118.5" width="68" height="25.5" as="geometry" />
        </mxCell>
        <mxCell id="vz__xgmZE1eOc8z8mBKd-261" value="" style="endArrow=classic;html=1;rounded=0;exitX=1.01;exitY=0.329;exitDx=0;exitDy=0;exitPerimeter=0;entryX=0.969;entryY=0.468;entryDx=0;entryDy=0;entryPerimeter=0;sketch=1;curveFitting=1;jiggle=2;" edge="1" parent="vz__xgmZE1eOc8z8mBKd-219" source="vz__xgmZE1eOc8z8mBKd-245" target="vz__xgmZE1eOc8z8mBKd-249">
          <mxGeometry width="50" height="50" relative="1" as="geometry">
            <mxPoint x="725.6054999999997" y="306.7529999999997" as="sourcePoint" />
            <mxPoint x="722.9809999999998" y="186.59850000000006" as="targetPoint" />
            <Array as="points">
              <mxPoint x="750" y="300" />
              <mxPoint x="770" y="300" />
              <mxPoint x="770" y="200" />
              <mxPoint x="750" y="200" />
            </Array>
          </mxGeometry>
        </mxCell>
        <mxCell id="vz__xgmZE1eOc8z8mBKd-262" value="&lt;font style=&quot;font-size: 12px;&quot;&gt;System Call Log&lt;br&gt;&amp;amp;&lt;br&gt;Container Info&lt;/font&gt;" style="text;html=1;align=center;verticalAlign=middle;whiteSpace=wrap;rounded=0;" vertex="1" parent="vz__xgmZE1eOc8z8mBKd-219">
          <mxGeometry x="755" y="240" width="140" height="30" as="geometry" />
        </mxCell>
        <mxCell id="vz__xgmZE1eOc8z8mBKd-263" value="&lt;font style=&quot;font-size: 35px;&quot;&gt;Linux Kernel&lt;/font&gt;" style="text;html=1;align=center;verticalAlign=middle;whiteSpace=wrap;rounded=0;" vertex="1" parent="vz__xgmZE1eOc8z8mBKd-219">
          <mxGeometry x="90" y="630" width="60" height="30" as="geometry" />
        </mxCell>
        <mxCell id="vz__xgmZE1eOc8z8mBKd-264" value="ContainerY" style="swimlane;whiteSpace=wrap;html=1;sketch=1;curveFitting=1;jiggle=2;" vertex="1" parent="vz__xgmZE1eOc8z8mBKd-219">
          <mxGeometry x="268" y="57" width="95" height="110" as="geometry" />
        </mxCell>
        <mxCell id="vz__xgmZE1eOc8z8mBKd-265" value="User Service" style="rounded=0;whiteSpace=wrap;html=1;sketch=1;curveFitting=1;jiggle=2;" vertex="1" parent="vz__xgmZE1eOc8z8mBKd-264">
          <mxGeometry x="2.3799999999999955" y="38.5" width="86.5" height="38.5" as="geometry" />
        </mxCell>
        <mxCell id="vz__xgmZE1eOc8z8mBKd-266" value="User Service" style="rounded=0;whiteSpace=wrap;html=1;sketch=1;curveFitting=1;jiggle=2;" vertex="1" parent="vz__xgmZE1eOc8z8mBKd-264">
          <mxGeometry x="6.1299999999999955" y="43.5" width="86.5" height="38.5" as="geometry" />
        </mxCell>
        <mxCell id="vz__xgmZE1eOc8z8mBKd-267" value="ContainerZ" style="swimlane;whiteSpace=wrap;html=1;sketch=1;curveFitting=1;jiggle=2;" vertex="1" parent="vz__xgmZE1eOc8z8mBKd-219">
          <mxGeometry x="268" y="178" width="95" height="110" as="geometry" />
        </mxCell>
        <mxCell id="vz__xgmZE1eOc8z8mBKd-268" value="User Service" style="rounded=0;whiteSpace=wrap;html=1;sketch=1;curveFitting=1;jiggle=2;" vertex="1" parent="vz__xgmZE1eOc8z8mBKd-267">
          <mxGeometry x="2.3799999999999955" y="38.5" width="86.5" height="38.5" as="geometry" />
        </mxCell>
        <mxCell id="vz__xgmZE1eOc8z8mBKd-269" value="User Service" style="rounded=0;whiteSpace=wrap;html=1;sketch=1;curveFitting=1;jiggle=2;" vertex="1" parent="vz__xgmZE1eOc8z8mBKd-267">
          <mxGeometry x="6.1299999999999955" y="43.5" width="86.5" height="38.5" as="geometry" />
        </mxCell>
        <mxCell id="vz__xgmZE1eOc8z8mBKd-270" value="" style="endArrow=classic;html=1;rounded=0;sketch=1;curveFitting=1;jiggle=2;" edge="1" parent="vz__xgmZE1eOc8z8mBKd-219" source="vz__xgmZE1eOc8z8mBKd-251">
          <mxGeometry width="50" height="50" relative="1" as="geometry">
            <mxPoint x="547" y="400" as="sourcePoint" />
            <mxPoint x="597" y="340" as="targetPoint" />
          </mxGeometry>
        </mxCell>
        <mxCell id="vz__xgmZE1eOc8z8mBKd-271" style="edgeStyle=orthogonalEdgeStyle;rounded=0;orthogonalLoop=1;jettySize=auto;html=1;exitX=1;exitY=0.5;exitDx=0;exitDy=0;entryX=0;entryY=0.5;entryDx=0;entryDy=0;sketch=1;curveFitting=1;jiggle=2;" edge="1" parent="vz__xgmZE1eOc8z8mBKd-219" source="vz__xgmZE1eOc8z8mBKd-272" target="vz__xgmZE1eOc8z8mBKd-277">
          <mxGeometry relative="1" as="geometry" />
        </mxCell>
        <mxCell id="vz__xgmZE1eOc8z8mBKd-272" value="tracepoint" style="rounded=1;whiteSpace=wrap;html=1;fillColor=#fff2cc;strokeColor=#d6b656;fillStyle=auto;sketch=1;curveFitting=1;jiggle=2;" vertex="1" parent="vz__xgmZE1eOc8z8mBKd-219">
          <mxGeometry x="217.5" y="570.25" width="120" height="29.75" as="geometry" />
        </mxCell>
        <mxCell id="vz__xgmZE1eOc8z8mBKd-273" style="edgeStyle=orthogonalEdgeStyle;rounded=0;orthogonalLoop=1;jettySize=auto;html=1;exitX=1;exitY=0.75;exitDx=0;exitDy=0;entryX=0;entryY=0.5;entryDx=0;entryDy=0;sketch=1;curveFitting=1;jiggle=2;" edge="1" parent="vz__xgmZE1eOc8z8mBKd-219" source="vz__xgmZE1eOc8z8mBKd-274" target="vz__xgmZE1eOc8z8mBKd-277">
          <mxGeometry relative="1" as="geometry" />
        </mxCell>
        <mxCell id="vz__xgmZE1eOc8z8mBKd-274" value="LSM" style="rounded=1;whiteSpace=wrap;html=1;fillColor=#fff2cc;strokeColor=#d6b656;sketch=1;curveFitting=1;jiggle=2;" vertex="1" parent="vz__xgmZE1eOc8z8mBKd-219">
          <mxGeometry x="217.5" y="610.3800000000001" width="120" height="29.75" as="geometry" />
        </mxCell>
        <mxCell id="vz__xgmZE1eOc8z8mBKd-275" value="cgroup" style="rounded=1;whiteSpace=wrap;html=1;fillColor=#d5e8d4;strokeColor=#82b366;sketch=1;curveFitting=1;jiggle=2;" vertex="1" parent="vz__xgmZE1eOc8z8mBKd-219">
          <mxGeometry x="217.5" y="650.5" width="120" height="29.75" as="geometry" />
        </mxCell>
        <mxCell id="vz__xgmZE1eOc8z8mBKd-276" value="" style="group" vertex="1" connectable="0" parent="vz__xgmZE1eOc8z8mBKd-219">
          <mxGeometry x="378" y="588.25" width="100" height="40" as="geometry" />
        </mxCell>
        <mxCell id="vz__xgmZE1eOc8z8mBKd-277" value="" style="rounded=1;whiteSpace=wrap;html=1;fillColor=#fff2cc;strokeColor=#d6b656;sketch=1;curveFitting=1;jiggle=2;" vertex="1" parent="vz__xgmZE1eOc8z8mBKd-276">
          <mxGeometry width="100" height="40" as="geometry" />
        </mxCell>
        <mxCell id="vz__xgmZE1eOc8z8mBKd-278" value="" style="shape=image;verticalLabelPosition=bottom;labelBackgroundColor=default;verticalAlign=top;aspect=fixed;imageAspect=0;image=https://ebpf.io/static/logo-black-98b7a1413b4a74ed961d292cf83da82e.svg;sketch=1;curveFitting=1;jiggle=2;" vertex="1" parent="vz__xgmZE1eOc8z8mBKd-276">
          <mxGeometry x="14.666666666666515" y="6.66666666666697" width="70.66666666666666" height="24.666666666666664" as="geometry" />
        </mxCell>
        <mxCell id="vz__xgmZE1eOc8z8mBKd-279" style="edgeStyle=orthogonalEdgeStyle;rounded=0;orthogonalLoop=1;jettySize=auto;html=1;exitX=0.5;exitY=1;exitDx=0;exitDy=0;sketch=1;curveFitting=1;jiggle=2;fillColor=#bac8d3;strokeColor=#000000;strokeWidth=1;" edge="1" parent="vz__xgmZE1eOc8z8mBKd-219" source="vz__xgmZE1eOc8z8mBKd-229" target="vz__xgmZE1eOc8z8mBKd-277">
          <mxGeometry relative="1" as="geometry">
            <mxPoint x="429" y="580" as="targetPoint" />
            <Array as="points" />
          </mxGeometry>
        </mxCell>
        <mxCell id="vz__xgmZE1eOc8z8mBKd-280" value="" style="shape=curlyBracket;whiteSpace=wrap;html=1;rounded=1;labelPosition=left;verticalLabelPosition=middle;align=right;verticalAlign=middle;direction=north;sketch=1;curveFitting=1;jiggle=2;container=1;" vertex="1" parent="vz__xgmZE1eOc8z8mBKd-219">
          <mxGeometry x="50" y="300" width="250" height="20" as="geometry" />
        </mxCell>
        <mxCell id="vz__xgmZE1eOc8z8mBKd-281" style="edgeStyle=orthogonalEdgeStyle;rounded=0;orthogonalLoop=1;jettySize=auto;html=1;exitX=0.1;exitY=0.5;exitDx=0;exitDy=0;exitPerimeter=0;sketch=1;curveFitting=1;jiggle=2;" edge="1" parent="vz__xgmZE1eOc8z8mBKd-219" source="vz__xgmZE1eOc8z8mBKd-280">
          <mxGeometry relative="1" as="geometry">
            <mxPoint x="175" y="560" as="targetPoint" />
            <Array as="points">
              <mxPoint x="175" y="556" />
            </Array>
          </mxGeometry>
        </mxCell>
        <mxCell id="vz__xgmZE1eOc8z8mBKd-282" value="System Call" style="text;html=1;align=center;verticalAlign=middle;whiteSpace=wrap;rounded=0;" vertex="1" parent="vz__xgmZE1eOc8z8mBKd-219">
          <mxGeometry x="170" y="360" width="90" height="30" as="geometry" />
        </mxCell>
        <mxCell id="vz__xgmZE1eOc8z8mBKd-283" value="" style="endArrow=classic;html=1;rounded=0;sketch=1;curveFitting=1;jiggle=2;flowAnimation=0;exitX=0.861;exitY=0.002;exitDx=0;exitDy=0;exitPerimeter=0;" edge="1" parent="vz__xgmZE1eOc8z8mBKd-219" source="vz__xgmZE1eOc8z8mBKd-247">
          <mxGeometry width="50" height="50" relative="1" as="geometry">
            <mxPoint x="702" y="141" as="sourcePoint" />
            <mxPoint x="702" y="101" as="targetPoint" />
          </mxGeometry>
        </mxCell>
        <mxCell id="vz__xgmZE1eOc8z8mBKd-284" value="SDN" style="rounded=1;whiteSpace=wrap;html=1;fillColor=#b1ddf0;strokeColor=#10739e;sketch=1;curveFitting=1;jiggle=2;" vertex="1" parent="vz__xgmZE1eOc8z8mBKd-219">
          <mxGeometry x="217.5" y="690" width="120" height="29.75" as="geometry" />
        </mxCell>
        <mxCell id="vz__xgmZE1eOc8z8mBKd-285" value="&lt;font style=&quot;font-size: 14px;&quot;&gt;User Space&lt;/font&gt;" style="text;html=1;align=left;verticalAlign=middle;whiteSpace=wrap;rounded=0;fontStyle=1" vertex="1" parent="vz__xgmZE1eOc8z8mBKd-219">
          <mxGeometry x="12" y="395" width="123" height="30" as="geometry" />
        </mxCell>
        <mxCell id="vz__xgmZE1eOc8z8mBKd-286" value="&lt;font style=&quot;font-size: 14px;&quot;&gt;Kernel Space&lt;/font&gt;" style="text;html=1;align=left;verticalAlign=middle;whiteSpace=wrap;rounded=0;fontStyle=1" vertex="1" parent="vz__xgmZE1eOc8z8mBKd-219">
          <mxGeometry x="12" y="435" width="123" height="30" as="geometry" />
        </mxCell>
        <mxCell id="vz__xgmZE1eOc8z8mBKd-287" style="edgeStyle=orthogonalEdgeStyle;rounded=0;orthogonalLoop=1;jettySize=auto;html=1;exitX=1;exitY=0.75;exitDx=0;exitDy=0;entryX=1;entryY=0.75;entryDx=0;entryDy=0;sketch=1;curveFitting=1;jiggle=2;" edge="1" parent="vz__xgmZE1eOc8z8mBKd-219" source="vz__xgmZE1eOc8z8mBKd-245" target="vz__xgmZE1eOc8z8mBKd-284">
          <mxGeometry relative="1" as="geometry" />
        </mxCell>
        <mxCell id="vz__xgmZE1eOc8z8mBKd-288" value="" style="group;" vertex="1" connectable="0" parent="1">
          <mxGeometry x="3260" y="3650" width="78" height="109.75" as="geometry" />
        </mxCell>
        <mxCell id="vz__xgmZE1eOc8z8mBKd-289" value="&lt;font style=&quot;font-size: 13px;&quot;&gt;Server&lt;br&gt;Admin&lt;/font&gt;" style="text;html=1;align=center;verticalAlign=middle;whiteSpace=wrap;rounded=0;" vertex="1" parent="vz__xgmZE1eOc8z8mBKd-288">
          <mxGeometry x="9" y="79.75" width="60" height="30" as="geometry" />
        </mxCell>
        <mxCell id="vz__xgmZE1eOc8z8mBKd-290" value="" style="shape=actor;whiteSpace=wrap;html=1;sketch=1;curveFitting=1;jiggle=2;fillColor=#f5f5f5;fontColor=#333333;strokeColor=#666666;" vertex="1" parent="vz__xgmZE1eOc8z8mBKd-288">
          <mxGeometry x="8" width="61" height="73" as="geometry" />
        </mxCell>
        <mxCell id="vz__xgmZE1eOc8z8mBKd-291" value="" style="endArrow=none;dashed=1;html=1;dashPattern=1 3;strokeWidth=2;rounded=0;fontSize=15;sketch=1;curveFitting=1;jiggle=2;" edge="1" parent="1" source="vz__xgmZE1eOc8z8mBKd-322">
          <mxGeometry width="50" height="50" relative="1" as="geometry">
            <mxPoint x="3473" y="3786" as="sourcePoint" />
            <mxPoint x="4328" y="3781" as="targetPoint" />
          </mxGeometry>
        </mxCell>
        <mxCell id="vz__xgmZE1eOc8z8mBKd-292" value="&lt;b&gt;.&lt;br&gt;.&lt;br&gt;.&lt;br&gt;&lt;/b&gt;" style="text;html=1;align=center;verticalAlign=middle;resizable=0;points=[];autosize=1;strokeColor=none;fillColor=none;sketch=1;curveFitting=1;jiggle=2;" vertex="1" parent="1">
          <mxGeometry x="3765" y="3989" width="21" height="55" as="geometry" />
        </mxCell>
        <mxCell id="vz__xgmZE1eOc8z8mBKd-293" value="User Space" style="text;html=1;align=center;verticalAlign=middle;resizable=0;points=[];autosize=1;strokeColor=none;fillColor=none;fontSize=15;sketch=1;curveFitting=1;jiggle=2;" vertex="1" parent="1">
          <mxGeometry x="3446" y="3741" width="96" height="30" as="geometry" />
        </mxCell>
        <mxCell id="vz__xgmZE1eOc8z8mBKd-294" value="Kernel Space" style="text;html=1;align=center;verticalAlign=middle;resizable=0;points=[];autosize=1;strokeColor=none;fillColor=none;fontSize=15;sketch=1;curveFitting=1;jiggle=2;" vertex="1" parent="1">
          <mxGeometry x="3441" y="3787.25" width="108" height="30" as="geometry" />
        </mxCell>
        <mxCell id="vz__xgmZE1eOc8z8mBKd-295" value="Net" style="whiteSpace=wrap;html=1;fontSize=15;sketch=1;curveFitting=1;jiggle=2;" vertex="1" parent="1">
          <mxGeometry x="3531" y="3820" width="120" height="60" as="geometry" />
        </mxCell>
        <mxCell id="vz__xgmZE1eOc8z8mBKd-296" value="F/S" style="whiteSpace=wrap;html=1;fontSize=15;sketch=1;curveFitting=1;jiggle=2;" vertex="1" parent="1">
          <mxGeometry x="3531" y="3888" width="120" height="60" as="geometry" />
        </mxCell>
        <mxCell id="vz__xgmZE1eOc8z8mBKd-297" value="proc" style="whiteSpace=wrap;html=1;fontSize=15;sketch=1;curveFitting=1;jiggle=2;" vertex="1" parent="1">
          <mxGeometry x="3531" y="3956" width="120" height="60" as="geometry" />
        </mxCell>
        <mxCell id="vz__xgmZE1eOc8z8mBKd-298" style="edgeStyle=orthogonalEdgeStyle;rounded=0;orthogonalLoop=1;jettySize=auto;html=1;exitX=0.5;exitY=0;exitDx=0;exitDy=0;fontSize=15;sketch=1;curveFitting=1;jiggle=2;" edge="1" parent="1" source="vz__xgmZE1eOc8z8mBKd-300" target="vz__xgmZE1eOc8z8mBKd-303">
          <mxGeometry relative="1" as="geometry" />
        </mxCell>
        <mxCell id="vz__xgmZE1eOc8z8mBKd-299" style="edgeStyle=orthogonalEdgeStyle;rounded=0;orthogonalLoop=1;jettySize=auto;html=1;exitX=0;exitY=0.5;exitDx=0;exitDy=0;fontSize=15;sketch=1;curveFitting=1;jiggle=2;" edge="1" parent="1" source="vz__xgmZE1eOc8z8mBKd-300" target="vz__xgmZE1eOc8z8mBKd-295">
          <mxGeometry relative="1" as="geometry" />
        </mxCell>
        <mxCell id="vz__xgmZE1eOc8z8mBKd-300" value="LSM Hook" style="ellipse;whiteSpace=wrap;html=1;fontSize=15;sketch=1;curveFitting=1;jiggle=2;" vertex="1" parent="1">
          <mxGeometry x="3725" y="3823" width="120" height="54" as="geometry" />
        </mxCell>
        <mxCell id="vz__xgmZE1eOc8z8mBKd-301" style="edgeStyle=orthogonalEdgeStyle;rounded=0;orthogonalLoop=1;jettySize=auto;html=1;exitX=0;exitY=0.5;exitDx=0;exitDy=0;fontSize=15;sketch=1;curveFitting=1;jiggle=2;" edge="1" parent="1" source="vz__xgmZE1eOc8z8mBKd-302" target="vz__xgmZE1eOc8z8mBKd-296">
          <mxGeometry relative="1" as="geometry" />
        </mxCell>
        <mxCell id="vz__xgmZE1eOc8z8mBKd-302" value="LSM Hook" style="ellipse;whiteSpace=wrap;html=1;fontSize=15;sketch=1;curveFitting=1;jiggle=2;" vertex="1" parent="1">
          <mxGeometry x="3725" y="3918" width="120" height="54" as="geometry" />
        </mxCell>
        <mxCell id="vz__xgmZE1eOc8z8mBKd-303" value="return -EPERM&lt;div&gt;&lt;font color=&quot;#ff0000&quot; style=&quot;font-size: 15px;&quot;&gt;&lt;b style=&quot;font-size: 15px;&quot;&gt;(Allow / Deny)&lt;/b&gt;&lt;/font&gt;&lt;/div&gt;" style="text;html=1;align=center;verticalAlign=middle;resizable=0;points=[];autosize=1;strokeColor=none;fillColor=none;fontSize=15;sketch=1;curveFitting=1;jiggle=2;" vertex="1" parent="1">
          <mxGeometry x="3767" y="3718" width="130" height="50" as="geometry" />
        </mxCell>
        <mxCell id="vz__xgmZE1eOc8z8mBKd-304" style="edgeStyle=orthogonalEdgeStyle;rounded=0;orthogonalLoop=1;jettySize=auto;html=1;exitX=1;exitY=0.5;exitDx=0;exitDy=0;fontSize=15;sketch=1;curveFitting=1;jiggle=2;" edge="1" parent="1" source="vz__xgmZE1eOc8z8mBKd-305" target="vz__xgmZE1eOc8z8mBKd-313">
          <mxGeometry relative="1" as="geometry">
            <Array as="points">
              <mxPoint x="4060" y="3844.75" />
              <mxPoint x="4193" y="3844.75" />
            </Array>
          </mxGeometry>
        </mxCell>
        <mxCell id="vz__xgmZE1eOc8z8mBKd-305" value="bpf Program" style="whiteSpace=wrap;html=1;fontSize=15;fillColor=#fff2cc;strokeColor=#d6b656;sketch=1;curveFitting=1;jiggle=2;" vertex="1" parent="1">
          <mxGeometry x="3924" y="3815" width="120" height="60" as="geometry" />
        </mxCell>
        <mxCell id="vz__xgmZE1eOc8z8mBKd-306" value="bpf Program" style="whiteSpace=wrap;html=1;fontSize=15;fillColor=#fff2cc;strokeColor=#d6b656;sketch=1;curveFitting=1;jiggle=2;" vertex="1" parent="1">
          <mxGeometry x="3924" y="3915" width="120" height="60" as="geometry" />
        </mxCell>
        <mxCell id="vz__xgmZE1eOc8z8mBKd-307" value="" style="curved=1;endArrow=classic;html=1;rounded=0;entryX=0.226;entryY=0.036;entryDx=0;entryDy=0;entryPerimeter=0;exitX=0.576;exitY=-0.028;exitDx=0;exitDy=0;exitPerimeter=0;fontSize=15;sketch=1;curveFitting=1;jiggle=2;" edge="1" parent="1" source="vz__xgmZE1eOc8z8mBKd-300" target="vz__xgmZE1eOc8z8mBKd-305">
          <mxGeometry width="50" height="50" relative="1" as="geometry">
            <mxPoint x="3676" y="3776" as="sourcePoint" />
            <mxPoint x="3726" y="3726" as="targetPoint" />
            <Array as="points">
              <mxPoint x="3857" y="3782" />
            </Array>
          </mxGeometry>
        </mxCell>
        <mxCell id="vz__xgmZE1eOc8z8mBKd-308" value="hook args" style="text;html=1;align=center;verticalAlign=middle;resizable=0;points=[];autosize=1;strokeColor=none;fillColor=none;fontSize=15;sketch=1;curveFitting=1;jiggle=2;" vertex="1" parent="1">
          <mxGeometry x="3836" y="3803" width="84" height="30" as="geometry" />
        </mxCell>
        <mxCell id="vz__xgmZE1eOc8z8mBKd-309" value="" style="curved=1;endArrow=classic;html=1;rounded=0;exitX=0.392;exitY=0.951;exitDx=0;exitDy=0;exitPerimeter=0;entryX=0.5;entryY=1;entryDx=0;entryDy=0;fontSize=15;sketch=1;curveFitting=1;jiggle=2;" edge="1" parent="1" source="vz__xgmZE1eOc8z8mBKd-305" target="vz__xgmZE1eOc8z8mBKd-300">
          <mxGeometry width="50" height="50" relative="1" as="geometry">
            <mxPoint x="3943" y="3902" as="sourcePoint" />
            <mxPoint x="3823" y="3970" as="targetPoint" />
            <Array as="points">
              <mxPoint x="3872" y="3896" />
            </Array>
          </mxGeometry>
        </mxCell>
        <mxCell id="vz__xgmZE1eOc8z8mBKd-310" value="hook return" style="text;html=1;align=center;verticalAlign=middle;resizable=0;points=[];autosize=1;strokeColor=none;fillColor=none;fontSize=15;sketch=1;curveFitting=1;jiggle=2;" vertex="1" parent="1">
          <mxGeometry x="3824" y="3860.5" width="94" height="30" as="geometry" />
        </mxCell>
        <mxCell id="vz__xgmZE1eOc8z8mBKd-311" value="" style="curved=1;endArrow=classic;html=1;rounded=0;entryX=0.5;entryY=0;entryDx=0;entryDy=0;exitX=0.485;exitY=0.003;exitDx=0;exitDy=0;exitPerimeter=0;fontSize=15;sketch=1;curveFitting=1;jiggle=2;" edge="1" parent="1" source="vz__xgmZE1eOc8z8mBKd-302" target="vz__xgmZE1eOc8z8mBKd-306">
          <mxGeometry width="50" height="50" relative="1" as="geometry">
            <mxPoint x="3793" y="3892" as="sourcePoint" />
            <mxPoint x="3962" y="3889" as="targetPoint" />
            <Array as="points">
              <mxPoint x="3870" y="3878" />
            </Array>
          </mxGeometry>
        </mxCell>
        <mxCell id="vz__xgmZE1eOc8z8mBKd-312" value="" style="curved=1;endArrow=classic;html=1;rounded=0;exitX=0.5;exitY=1;exitDx=0;exitDy=0;entryX=0.553;entryY=0.933;entryDx=0;entryDy=0;entryPerimeter=0;fontSize=15;sketch=1;curveFitting=1;jiggle=2;" edge="1" parent="1" source="vz__xgmZE1eOc8z8mBKd-306" target="vz__xgmZE1eOc8z8mBKd-302">
          <mxGeometry width="50" height="50" relative="1" as="geometry">
            <mxPoint x="3969" y="3965" as="sourcePoint" />
            <mxPoint x="3792" y="3968" as="targetPoint" />
            <Array as="points">
              <mxPoint x="3885" y="4014" />
            </Array>
          </mxGeometry>
        </mxCell>
        <mxCell id="vz__xgmZE1eOc8z8mBKd-313" value="BPF Ring Buffer" style="strokeWidth=1;html=1;shape=mxgraph.flowchart.direct_data;whiteSpace=wrap;fontSize=15;sketch=1;curveFitting=1;jiggle=2;" vertex="1" parent="1">
          <mxGeometry x="4191" y="3757.25" width="225" height="60" as="geometry" />
        </mxCell>
        <mxCell id="vz__xgmZE1eOc8z8mBKd-314" style="edgeStyle=orthogonalEdgeStyle;rounded=0;orthogonalLoop=1;jettySize=auto;html=1;exitX=1;exitY=0.5;exitDx=0;exitDy=0;entryX=0.5;entryY=1;entryDx=0;entryDy=0;entryPerimeter=0;fontSize=15;sketch=1;curveFitting=1;jiggle=2;" edge="1" parent="1" source="vz__xgmZE1eOc8z8mBKd-306" target="vz__xgmZE1eOc8z8mBKd-313">
          <mxGeometry relative="1" as="geometry" />
        </mxCell>
        <mxCell id="vz__xgmZE1eOc8z8mBKd-315" style="edgeStyle=orthogonalEdgeStyle;rounded=0;orthogonalLoop=1;jettySize=auto;html=1;exitX=0.5;exitY=1;exitDx=0;exitDy=0;entryX=1.002;entryY=0.402;entryDx=0;entryDy=0;entryPerimeter=0;sketch=1;curveFitting=1;jiggle=2;" edge="1" parent="1" target="vz__xgmZE1eOc8z8mBKd-306">
          <mxGeometry relative="1" as="geometry">
            <mxPoint x="4097.000000000001" y="3801.75" as="sourcePoint" />
          </mxGeometry>
        </mxCell>
        <mxCell id="vz__xgmZE1eOc8z8mBKd-316" value="LSM, eBPF : 프로세스 실행 전 차단이 필요한 경우" style="text;strokeColor=none;fillColor=none;html=1;fontSize=24;fontStyle=1;verticalAlign=middle;align=left;" vertex="1" parent="1">
          <mxGeometry x="3448" y="3671.25" width="100" height="40" as="geometry" />
        </mxCell>
        <mxCell id="vz__xgmZE1eOc8z8mBKd-317" value="cgroup : 실행 중인 프로세스의 이상행위 차단" style="text;strokeColor=none;fillColor=none;html=1;fontSize=24;fontStyle=1;verticalAlign=middle;align=left;" vertex="1" parent="1">
          <mxGeometry x="3460" y="4089" width="100" height="40" as="geometry" />
        </mxCell>
        <mxCell id="vz__xgmZE1eOc8z8mBKd-318" style="edgeStyle=orthogonalEdgeStyle;rounded=0;orthogonalLoop=1;jettySize=auto;html=1;exitX=0.5;exitY=1;exitDx=0;exitDy=0;entryX=1.006;entryY=0.372;entryDx=0;entryDy=0;entryPerimeter=0;sketch=1;curveFitting=1;jiggle=2;" edge="1" parent="1" target="vz__xgmZE1eOc8z8mBKd-305">
          <mxGeometry relative="1" as="geometry">
            <mxPoint x="4097.000000000001" y="3801.75" as="sourcePoint" />
          </mxGeometry>
        </mxCell>
        <mxCell id="vz__xgmZE1eOc8z8mBKd-319" value="&lt;b&gt;.&lt;br&gt;.&lt;br&gt;.&lt;br&gt;&lt;/b&gt;" style="text;html=1;align=center;verticalAlign=middle;resizable=0;points=[];autosize=1;strokeColor=none;fillColor=none;sketch=1;curveFitting=1;jiggle=2;" vertex="1" parent="1">
          <mxGeometry x="3980" y="3989" width="21" height="55" as="geometry" />
        </mxCell>
        <mxCell id="vz__xgmZE1eOc8z8mBKd-320" value="system call logs" style="text;html=1;align=center;verticalAlign=middle;resizable=0;points=[];autosize=1;strokeColor=none;fillColor=none;fontSize=15;sketch=1;curveFitting=1;jiggle=2;" vertex="1" parent="1">
          <mxGeometry x="4297" y="3875" width="130" height="30" as="geometry" />
        </mxCell>
        <mxCell id="vz__xgmZE1eOc8z8mBKd-321" value="" style="endArrow=none;dashed=1;html=1;dashPattern=1 3;strokeWidth=2;rounded=0;fontSize=15;sketch=1;curveFitting=1;jiggle=2;" edge="1" parent="1" target="vz__xgmZE1eOc8z8mBKd-322">
          <mxGeometry width="50" height="50" relative="1" as="geometry">
            <mxPoint x="3473" y="3780" as="sourcePoint" />
            <mxPoint x="4328" y="3781" as="targetPoint" />
          </mxGeometry>
        </mxCell>
        <mxCell id="vz__xgmZE1eOc8z8mBKd-322" value="Policy&lt;br&gt;Map" style="shape=internalStorage;whiteSpace=wrap;html=1;backgroundOutline=1;dx=10;dy=10;sketch=1;curveFitting=1;jiggle=2;" vertex="1" parent="1">
          <mxGeometry x="4044" y="3741" width="80" height="70" as="geometry" />
        </mxCell>
      </root>
    </mxGraphModel>
  </diagram>
</mxfile>
